<svg xmlns="http://www.w3.org/2000/svg" width="48" height="48" viewBox="0 0 48.00007 48"><path d="M43.174 12.944a3.181 3.181 0 0 0-3.138-2.847H33.03V7.102c0-1.654-1.346-3-3-3H18.028c-1.655 0-3 1.346-3 3v2.995H8.02a3.18 3.18 0 0 0-3.138 2.847l-2.71 27.874a2.871 2.871 0 0 0 .721 2.207 2.87 2.87 0 0 0 2.127.93h38.015c.815 0 1.59-.338 2.127-.93s.8-1.395.721-2.206l-2.71-27.875zM18.028 7.102H30.03v2.995H18.028V7.102zM8.02 13.097h32.015c.053 0 .147.085.152.137l1.759 18.09a5.375 5.375 0 0 1-2.624.698H8.735a5.395 5.395 0 0 1-2.624-.7L7.87 13.233c.004-.051.1-.137.151-.137zM5.174 40.956l.63-6.484a8.32 8.32 0 0 0 2.93.55h8.463a2.994 2.994 0 0 0 2.83 2.05h8.003c1.32 0 2.431-.863 2.831-2.05h8.462a8.407 8.407 0 0 0 2.932-.532l.628 6.466H5.174z"/></svg>