<?xml version="1.0" standalone="no"?>
<!DOCTYPE svg PUBLIC "-//W3C//DTD SVG 1.1//EN" "http://www.w3.org/Graphics/SVG/1.1/DTD/svg11.dtd" >
<svg xmlns="http://www.w3.org/2000/svg" xmlns:xlink="http://www.w3.org/1999/xlink" version="1.1">
<metadata></metadata>
<defs>
<font id="amexcardembossingbaregular" horiz-adv-x="1024" >
<font-face units-per-em="2048" ascent="1638" descent="-410" />
<missing-glyph horiz-adv-x="942" />
<glyph horiz-adv-x="0" />
<glyph unicode="&#xd;" horiz-adv-x="942" />
<glyph horiz-adv-x="0" />
<glyph horiz-adv-x="0" />
<glyph unicode="&#x9;" horiz-adv-x="485" />
<glyph unicode=" "  horiz-adv-x="942" />
<glyph unicode="&#x09;" horiz-adv-x="942" />
<glyph unicode="&#xa0;" horiz-adv-x="942" />
<glyph unicode="!" horiz-adv-x="817" d="M270 139q0 57 40 97t100 38q57 0 97 -39.5t40 -97.5h-2q0 -57 -40 -97t-97 -40t-97.5 40t-40.5 99zM307 1499v12q0 66 18.5 96.5t84.5 30.5q39 0 60.5 -8t32.5 -23.5t14 -39t3 -56.5v-6l-10 -932q0 -61 -21.5 -87.5t-76.5 -28.5q-59 0 -76 28.5t-17 92.5z" />
<glyph unicode="&#x22;" horiz-adv-x="849" d="M182 1364h187l-37 -563h-109zM477 1364h187l-37 -563h-109z" />
<glyph unicode="#" horiz-adv-x="1638" d="M118 593q-5 28 4 54.5t34 40.5q4 4 13 7t21 3h254l50 285h-222q-31 0 -50 20.5t-24 47t4 54.5t34 40q4 4 13 7t21 3h252l66 401q8 49 39.5 67.5t65.5 13.5t57.5 -31.5t17.5 -69.5l-63 -381h331l66 401q8 49 40 67.5t65.5 13.5t57 -31.5t17.5 -69.5l-63 -381h223 q39 0 59.5 -26.5t20.5 -59.5t-17.5 -59.5t-54.5 -26.5h-260l-47 -287h219q39 0 59.5 -26.5t20.5 -59t-17.5 -59.5t-54.5 -27h-256l-74 -446q-6 -37 -30.5 -56.5t-54 -21.5t-56.5 14.5t-37 51.5q-2 6 -3 16t1 24l70 418l-330 2l-76 -448q-6 -37 -30.5 -56.5t-54 -21.5 t-56.5 14.5t-37 51.5q-2 6 -3 16t3 24l70 418h-223q-31 0 -50.5 20.5t-24.5 48.5zM629 698l332 -2l47 287h-332z" />
<glyph unicode="$" horiz-adv-x="1282" d="M211 1188q0 82 23.5 149.5t65.5 118.5t98.5 85t123.5 48l-2 137q0 45 26.5 68t59.5 24t59.5 -19.5t26.5 -63.5l2 -144q98 -16 149.5 -58t82.5 -91q8 -14 19 -41t18 -47q20 -8 28 -24.5t8 -35.5q2 -31 2 -44t3 -42q-4 -63 -68 -65q-45 -2 -72.5 -1t-77.5 -1q-59 0 -65 63 q-2 29 -2 45.5t2 42.5q0 37 33 58q-23 41 -61 52t-85 9q-90 0 -143 -57.5t-53 -159.5q0 -47 12 -81t34.5 -58.5t54.5 -42t71 -31.5q27 -10 52.5 -18.5t47.5 -18.5q59 -20 127 -50t126 -81t96 -127.5t38 -189.5q0 -53 -16.5 -121t-55 -131.5t-104.5 -112.5t-166 -68l2 -143 q0 -33 -14.5 -51.5t-40.5 -30.5q-27 -12 -60.5 -2t-50.5 45q-2 4 -4 13.5t-2 23.5v143q-123 18 -191.5 82t-101.5 154l-6 18q-23 6 -33 23.5t-10 38.5q-2 31 -2 44v42q4 61 66 65q45 2 81.5 2t83.5 -2q59 0 64 -61q2 -29 2 -45v-43q0 -35 -31 -53q14 -27 49 -53.5t111 -26.5 q109 0 168 68.5t59 172.5q0 68 -21.5 113t-62.5 78t-100 56.5t-133 47.5q-61 20 -121.5 52t-110 80.5t-79 116t-29.5 157.5z" />
<glyph unicode="%" horiz-adv-x="2144" d="M211 948v467q0 121 83 180.5t228 59.5q135 0 219 -60.5t84 -185.5v-453q0 -72 -22.5 -121t-63.5 -78.5t-98 -42t-125 -12.5q-141 0 -223 56.5t-82 189.5zM399 999q0 -72 23.5 -100.5t95.5 -28.5q70 0 96.5 30t26.5 101v351q0 66 -23.5 101.5t-97.5 37.5q-76 0 -97.5 -35 t-21.5 -94zM635 72q0 6 1 16t7 23l690 1476q18 39 47 50.5t57.5 5t49 -27.5t20.5 -50q0 -25 -10 -45l-692 -1483q-14 -31 -35.5 -42t-50.5 -11q-31 0 -58.5 23.5t-25.5 64.5zM1319 229v467q0 121 83 180.5t228 57.5q135 0 219 -60.5t84 -183.5v-452q0 -72 -22.5 -121 t-63.5 -79t-98 -42t-125 -12q-141 0 -223 56t-82 189zM1507 279q0 -72 24.5 -100.5t96.5 -26.5q70 0 96.5 29.5t26.5 101.5v350q0 66 -23.5 101.5t-99.5 37.5q-76 0 -97.5 -35t-21.5 -94z" />
<glyph unicode="&#x26;" horiz-adv-x="1759" d="M211 424q0 133 44 243.5t155 192.5q16 14 39 31q41 31 96 67q-43 74 -59.5 106t-16.5 30q-35 59 -45 109t-14 100q-4 70 18.5 130t67.5 104t109.5 71.5t146.5 31.5q80 4 147.5 -13t117.5 -55t78.5 -94.5t32.5 -125.5q8 -129 -72.5 -242t-244.5 -217q76 -109 146.5 -202 t160.5 -199q10 16 17.5 35.5t15.5 35.5q8 20 16 41q20 45 29.5 86t13.5 70q-2 23 -2 38t2 40q4 57 62 59q27 0 44 1t33.5 1t35 -1t47.5 -3q55 0 59 -57q0 -16 1 -26.5t1 -20t-1 -20.5t-1 -28q-2 -23 -12.5 -39t-26.5 -16h-18q-10 0 -22.5 -1t-29.5 1q-10 -33 -21 -67.5 t-26 -75.5q-12 -35 -26 -72q-12 -31 -28.5 -64.5t-33.5 -56.5q23 -25 30 -33t7 -10q37 -37 68 -57q16 23 49 24q31 2 46 2.5t44 -2.5q57 -4 57 -59q0 -27 1 -44t1 -33.5t-1 -35t-1 -47.5v2q0 -55 -59 -59q-49 -4 -77 3t-56 17q-37 16 -76 45t-98 89l-8 8q-4 4 -13.5 12 t-19.5 21q-10 -12 -24.5 -26.5t-14.5 -16.5q-78 -78 -171 -122t-235 -44q-111 0 -199.5 33.5t-152 93t-98.5 139.5t-35 172zM403 438q2 -59 28 -108t67 -83t95 -51.5t116 -13.5q76 4 147.5 31t120.5 86q2 4 8 10q4 4 9.5 10.5t11.5 14.5q-6 6 -9.5 10t-7.5 8t-6 8 q-31 33 -63.5 73t-64.5 79t-60.5 77t-51.5 68q-33 43 -52 71t-46 69q-43 -25 -79 -49.5t-64 -53.5q-45 -45 -74 -114.5t-25 -141.5zM606 1317q2 -25 6 -47.5t15.5 -51t32 -67.5t53.5 -96q111 66 171 138.5t56 135.5q-4 72 -59.5 103.5t-128.5 27.5q-66 -4 -108 -41t-38 -102 z" />
<glyph unicode="'" horiz-adv-x="423" d="M119 1364h186l-39 -563h-108z" />
<glyph unicode="(" horiz-adv-x="1153" d="M250 625q0 186 38 337.5t111 292.5q35 66 76 119t84 96q66 61 134.5 105.5t115.5 46.5q41 0 66.5 -28.5t25.5 -65.5h2q0 -41 -17.5 -60.5t-64.5 -42.5q-37 -16 -71.5 -45.5t-67.5 -65.5t-60.5 -76t-48.5 -79q-66 -119 -95 -246t-29 -297q0 -115 18 -209t49 -170.5 t69 -138t74 -108.5q14 -18 36 -40t44.5 -41.5t44 -35.5t37.5 -27q27 -16 53.5 -35.5t26.5 -70.5q0 -45 -27.5 -65.5t-70.5 -20.5q-29 0 -68 19.5t-73 39.5q-43 29 -89.5 74t-76.5 86q-82 104 -144.5 243.5t-85.5 297.5q-8 47 -12 100t-4 111z" />
<glyph unicode=")" horiz-adv-x="1153" d="M250 -252q0 49 25.5 68.5t52.5 33.5q18 6 40.5 21.5t45 35t44 41t36.5 40.5q37 49 73.5 110.5t67.5 138t49 171t18 208.5q0 170 -27.5 297t-92.5 244q-23 39 -50.5 80t-60.5 78t-67.5 65.5t-71.5 46.5q-47 23 -64.5 41.5t-17.5 59.5q0 35 25.5 63.5t66.5 28.5 q47 0 116.5 -43t135.5 -102q43 -43 82 -99.5t74 -122.5q74 -139 112.5 -290.5t38.5 -337.5h2q0 -57 -4 -109.5t-12 -99.5q-25 -158 -87.5 -298.5t-144.5 -244.5q-31 -41 -77 -85t-91 -73q-35 -23 -72.5 -42t-68.5 -19q-41 0 -68.5 26.5t-27.5 67.5z" />
<glyph unicode="*" horiz-adv-x="1116" d="M133 1298q-2 41 23.5 70t64.5 31q16 0 30.5 -4t39.5 -19l180 -102l41 29l-35 176q-4 23 -8 39t-4 24q-2 41 23.5 67.5t66.5 28.5t67.5 -24.5t28.5 -67.5q0 -8 -6 -41l-39 -202l39 -31l156 88q37 23 53 30t33 7q37 2 65.5 -24.5t30.5 -67.5h-2q2 -84 -102 -97l-205 -24 l-19 -49l138 -117q23 -18 35 -31.5t18 -24t8 -20.5t2 -22q2 -39 -25.5 -68t-68.5 -31q-35 -2 -54.5 13.5t-39.5 60.5l-88 188l-54 -2l-67 -161q-25 -59 -45.5 -79t-55.5 -22q-41 -2 -68.5 24.5t-31.5 65.5q0 27 9 44.5t38 43.5l150 140l-13 47l-180 20q-74 8 -100.5 27.5 t-28.5 66.5z" />
<glyph unicode="+" d="M16 772l422 -2l-2 395l150 2v-395l418 2l2 -147v-2l-420 2l2 -396h-150l2 394h-422z" />
<glyph unicode="," horiz-adv-x="647" d="M172 -262q0 18 3 30.5t9 29t14.5 41t18.5 67.5q8 37 9 62.5t3 35.5q-49 6 -53 62q-2 31 -2 66.5v64.5q2 29 18.5 45t47.5 16q27 0 47 1t38.5 1t38 -1t48.5 -1q59 0 63 -63v2q2 -33 2 -65t-4 -62q-2 -23 -13 -67t-40 -112q-57 -123 -117 -176q-31 -31 -67 -30 q-18 0 -41 14t-23 39z" />
<glyph unicode="-" horiz-adv-x="849" d="M193 561q0 61 29.5 86t107.5 25h190q76 0 106.5 -25t30.5 -84t-30.5 -81.5t-120.5 -22.5h-168q-86 0 -115.5 21.5t-29.5 80.5z" />
<glyph unicode="." horiz-adv-x="647" d="M170 132v69q4 57 63 61q53 2 91 2t94 -2q27 0 42 -16t15 -45q2 -31 2 -70v-70q-4 -59 -61 -59q-92 -2 -183 0q-57 0 -61 59q-2 29 -2 71z" />
<glyph unicode="/" horiz-adv-x="1103" d="M115 72q0 6 1 16t7 23l692 1476q18 39 47 50.5t57.5 5t49 -28t20.5 -49.5h-2q0 -23 -8 -45l-692 -1483q-14 -31 -36 -42t-50 -11q-31 0 -58.5 23.5t-27.5 64.5z" />
<glyph unicode="0" horiz-adv-x="1517" d="M270 406v837q0 205 129 308.5t365 103.5q109 0 198 -26.5t151.5 -79t97 -131.5t34.5 -183v-819l2 2q0 -123 -35.5 -206t-100 -134t-156 -72.5t-201.5 -21.5q-113 0 -203 23.5t-152.5 74.5t-95.5 131t-33 193zM477 412q0 -123 68.5 -175.5t208.5 -52.5q133 0 208.5 53.5 t75.5 176.5v809q0 111 -69.5 174t-212.5 63t-211 -62.5t-68 -162.5v-823z" />
<glyph unicode="1" horiz-adv-x="1259" d="M156 96q0 53 29.5 76t62.5 25l278 -2l2 1237l-6 -2q-27 0 -53.5 4t-48 14t-34.5 28.5t-13 47.5q0 47 23.5 71.5t64.5 33.5t98 9h125q29 0 40 -12t11 -29v-1400l283 -2q33 -4 50 -19.5t25.5 -33t8.5 -23.5l2 -19q0 -27 -9.5 -46t-22.5 -31.5t-27.5 -17.5t-26.5 -5l-770 -2 q-33 0 -62.5 22.5t-29.5 75.5z" />
<glyph unicode="2" horiz-adv-x="1525" d="M258 106v349q0 129 26.5 216t77 140t124 76.5t167.5 23.5l197 4q63 0 105 13.5t69 43t38 79t11 123.5q0 82 -12 136t-48 87t-100.5 47t-164.5 14q-156 0 -236 -35q-35 -16 -65.5 -32.5t-71.5 -14.5q-37 2 -59.5 32t-20.5 79q2 47 47 82t113 51q55 14 140 24.5t163 10.5 q143 0 241.5 -24.5t160 -79t89 -140.5t27.5 -211v2q0 -135 -20.5 -228t-69.5 -150.5t-129 -83t-197 -25.5h-66.5h-58t-41.5 -1l-16 -1q-61 0 -103.5 -15.5t-67 -52.5t-35.5 -98.5t-11 -151.5v-196h704q39 0 73 -22.5t38 -78.5q0 -53 -35 -75.5t-76 -22.5h-790 q-68 0 -92.5 26.5t-24.5 79.5z" />
<glyph unicode="3" horiz-adv-x="1480" d="M225 178q-2 47 27 78t63 29q25 0 39.5 -5.5t23.5 -11.5t15 -13t15 -13q16 -12 34.5 -23.5t49 -21t81 -14.5t129.5 -5q92 0 150.5 17.5t92.5 54.5t47.5 92t13.5 133q0 141 -32 198.5t-116 57.5l-289 2q-39 0 -68.5 19.5t-29.5 74.5t29.5 78t68.5 23h273q39 0 69.5 9 t51 34.5t31 73t10.5 122.5q0 80 -9.5 135.5t-40 89t-90 47t-162.5 13.5q-59 0 -122.5 -9t-102.5 -36q-33 -20 -56.5 -38.5t-68.5 -16.5q-39 0 -63.5 28.5t-22.5 65.5q2 47 27.5 84t73.5 65q47 29 132 43.5t201 14.5q143 0 240.5 -18.5t157 -67.5t86 -135t26.5 -224 q0 -88 -7 -148.5t-19.5 -102.5t-30.5 -69.5t-43 -49.5q18 -12 35.5 -31t32 -57.5t23.5 -105t9 -177.5q0 -139 -24.5 -232.5t-84 -149.5t-162.5 -80.5t-259 -24.5q-25 0 -66 1t-87 5t-90 11t-75 17q-51 16 -93 54t-44 110z" />
<glyph unicode="4" horiz-adv-x="1513" d="M270 1542q0 37 23.5 73t79.5 40q53 0 78.5 -30t25.5 -81v-641h406v649q0 45 25.5 74t74.5 29q51 0 77.5 -30t26.5 -73v-649l68 2q47 2 78 -19.5t31 -74.5v2q0 -55 -29 -79.5t-68 -26.5l-80 -2v-619q0 -33 -24.5 -67.5t-79.5 -34.5q-53 0 -77.5 34.5t-24.5 65.5v621h-564 q-29 0 -37 11t-8 38z" />
<glyph unicode="5" horiz-adv-x="1490" d="M250 182q-2 45 26.5 75t63.5 26q25 -2 39 -6.5t23.5 -10.5t15.5 -12t14 -10q16 -12 34.5 -24.5t49.5 -22t81 -14.5t130 -5q92 0 150.5 17.5t92.5 53.5t46 91t12 133q0 141 -30.5 198.5t-116.5 57.5h-461q-49 0 -78 6t-45 23.5t-21.5 48.5t-5.5 82v204.5v193.5v154.5v90.5 q0 53 24.5 79.5t92.5 26.5q27 0 82 1t125 1h143.5h138h109.5h57q16 0 38 -4t41.5 -14t31.5 -29.5t12 -52.5q-2 -37 -11 -56.5t-25.5 -28.5t-39 -11t-47.5 -2h-571v-518h393q106 0 177 -21.5t114 -74t60.5 -141.5t17.5 -224v2q0 -139 -24.5 -231.5t-84 -147.5t-161 -77.5 t-256.5 -22.5q-25 0 -66 1t-87 5t-91 9t-76 15q-51 16 -92 55.5t-45 110.5z" />
<glyph unicode="6" horiz-adv-x="1449" d="M270 426v1124q0 39 23.5 70t83.5 35q53 0 76.5 -31t23.5 -72l-2 -604q115 16 195 20.5t133 4.5q125 0 208 -33t134 -96.5t72.5 -157.5t21.5 -217v2q0 -121 -24.5 -212t-82 -152.5t-151.5 -93t-233 -31.5q-104 0 -191.5 23.5t-151 75.5t-99.5 137t-36 208zM475 494 q0 -164 59.5 -239t219.5 -75q74 0 128 10.5t89 43t51 92t16 155.5q0 92 -13 148.5t-46 89.5t-88 44t-137 11q-51 -2 -103 -4q-43 -4 -92 -7t-84 -13v-256z" />
<glyph unicode="7" horiz-adv-x="1282" d="M0 1540q0 47 30.5 72.5t67.5 25.5h695q63 0 103 -9t61.5 -30.5t28.5 -60.5t7 -96v-1348v-2q0 -47 -27.5 -77.5t-74.5 -30.5q-53 0 -78 29.5t-25 76.5v1350h-688q-39 0 -69.5 23.5t-30.5 76.5z" />
<glyph unicode="8" horiz-adv-x="1529" d="M270 418q4 72 33 141q25 59 76 129t149 129q-96 41 -148 107.5t-75 132.5q-29 76 -31 157q0 127 26 212t82 135.5t149.5 72t228.5 21.5t230 -22.5t154.5 -73t86 -133.5t26.5 -205q-4 -84 -32 -160q-25 -66 -76 -133.5t-145 -108.5q96 -49 147 -117.5t76 -132.5 q29 -74 33 -151v2q0 -102 -17.5 -182t-72 -137.5t-153.5 -87t-263 -29.5q-154 0 -249 32.5t-147.5 90t-70 137.5t-17.5 174zM479 420q0 -66 12.5 -110t45 -70.5t90 -38t149.5 -11.5q80 0 134.5 12.5t86 40t46 70t14.5 103.5q-2 59 -35 116q-29 49 -87 104.5t-169 98.5 q-109 -47 -167 -102t-85 -103.5t-31 -79.5zM481 1210q2 -59 35 -114q27 -47 85 -98.5t167 -84.5q106 33 163.5 83.5t84.5 97.5q31 55 35 116h2q0 86 -16.5 136.5t-51.5 75t-90 30.5t-131 6t-129 -7t-87 -31.5t-50.5 -74t-16.5 -135.5z" />
<glyph unicode="9" horiz-adv-x="1449" d="M211 1165q0 119 24.5 211t82 153.5t152.5 93.5t235 32q104 0 191 -23.5t149.5 -76t98.5 -137.5t36 -208v-1126v2q0 -39 -23.5 -69.5t-81.5 -34.5q-53 0 -76.5 30.5t-23.5 71.5v602q-86 -10 -163 -17t-175 -5q-121 0 -203 31.5t-131 95t-70.5 157.5t-21.5 217zM412 1159 q0 -92 13 -148.5t45 -89t87 -44t139 -11.5q43 0 92 2q41 2 90.5 7.5t96.5 15.5v256q0 164 -59.5 238.5t-219.5 74.5q-74 0 -128 -11t-89 -43t-51 -91.5t-16 -155.5z" />
<glyph unicode=":" horiz-adv-x="681" d="M190.5 127q-0.5 41 2.5 70q4 57 61 57q51 2 88 2t90 -2q57 0 57 -59v-2q2 -29 2.5 -67t0.5 -67q-4 -59 -62 -59q-88 -2 -178 0q-55 0 -59 57q-2 29 -2.5 70zM190.5 756q-0.5 41 2.5 69q4 57 61 58q51 2 88 2t90 -4q57 0 57 -58v-2q2 -29 2.5 -66.5t0.5 -66.5 q-4 -59 -62 -59q-88 -2 -178 0q-55 0 -59 57q-2 29 -2.5 70z" />
<glyph unicode=";" horiz-adv-x="681" d="M190.5 756q-0.5 41 2.5 69q4 57 61 58q51 2 88 2t90 -4q57 0 57 -58v-2q2 -29 2.5 -66.5t0.5 -66.5q-4 -59 -62 -59q-88 -2 -178 0q-55 0 -59 57q-2 29 -2.5 70zM193 -260q0 18 3 30.5t9 29t14 40t19 64.5q8 37 9 63.5t1 36.5q-49 6 -51 62q-2 29 -2 62.5v59.5 q2 29 18 45.5t45 16.5q27 0 46.5 1t37.5 1t38.5 -1t49.5 -1q27 0 43 -16.5t16 -45.5v-2q2 -31 3.5 -61.5t-3.5 -61.5q-2 -20 -13 -63t-42 -109q-29 -61 -55.5 -103t-54.5 -69q-31 -31 -70 -30q-16 0 -38.5 14t-22.5 37z" />
<glyph unicode="&#x3c;" d="M16 768l988 426l2 -158l-797 -346l795 -332l2 -159l-988 407z" />
<glyph unicode="=" d="M16 616l990 2l-2 -149l2 2l-988 -2zM16 926h988l2 -146l-988 -2z" />
<glyph unicode="&#x3e;" d="M16 358l797 344l-795 332l-2 160l988 -408l2 -161l-988 -426z" />
<glyph unicode="?" horiz-adv-x="1458" d="M229 1182q0 16 2 45q0 8 1 18t4 10q16 82 57 153t105.5 122t150.5 79.5t190 28.5q109 0 199 -34.5t154.5 -98t99.5 -153t35 -195.5q0 -78 -19.5 -140.5t-59.5 -113.5t-98.5 -94t-134.5 -82q-43 -23 -70.5 -42t-43 -41.5t-22.5 -50.5t-9 -67q-4 -72 -29.5 -96t-78.5 -24 q-100 0 -101 120q0 63 3 104.5t26 84.5q23 47 52.5 75.5t88.5 63.5q6 4 23.5 14.5t36 20.5t35 19.5t20.5 13.5q31 18 61.5 38.5t56 48t41 63.5t15.5 87q0 68 -22.5 120t-61.5 89t-91 55.5t-110 18.5q-109 0 -177.5 -46t-96.5 -106q43 -12 43 -61q2 -33 3 -46.5t-1 -45.5 q0 -61 -68 -66q-25 0 -40 -1t-30.5 -1t-32 1t-40.5 1q-59 4 -64 64q-2 31 -2 47zM528 137q0 57 40 97t98 40q57 0 97 -40t40 -97t-40 -97t-97 -40t-97.5 40t-40.5 97z" />
<glyph unicode="@" horiz-adv-x="1708" d="M164 676q0 152 54 281.5t151.5 225t229.5 151t288 55.5q141 0 262 -44.5t209 -122t137 -185t49 -234.5q0 -176 -88 -308.5t-246 -191.5q-70 -29 -120 -29q-47 0 -74 26t-29 73q0 8 2 14q-41 -51 -93 -78.5t-116 -27.5q-66 0 -121 23.5t-94 68.5t-60.5 106.5t-21.5 134.5 q0 92 29 170t79 135.5t117.5 91t147.5 33.5q164 0 234 -139l24 113l131 2l-96 -537q-4 -25 -7 -37t-3 -20q0 -6 2 -10q0 -31 30 -31q29 0 74 28.5t90 73.5q53 55 84 131t31 158q0 111 -41 204t-114.5 161.5t-176 106.5t-223.5 38q-127 0 -237.5 -47t-191.5 -128t-127 -191.5 t-46 -237.5q0 -129 47 -239.5t128 -191.5t192.5 -128t240.5 -47q139 0 252 59q25 12 44.5 23.5t38.5 27t41.5 36t51.5 48.5h131q-35 -41 -59.5 -70.5t-47 -51t-44 -38t-47.5 -34.5q-152 -98 -369 -99q-158 0 -291 52.5t-230.5 145.5t-152.5 221t-55 280zM641 627 q0 -92 51 -149.5t135 -57.5q98 0 157.5 80t57.5 209h2q0 88 -46 139t-124 51q-49 0 -91 -20.5t-73.5 -57.5t-50 -87t-18.5 -107z" />
<glyph unicode="A" horiz-adv-x="1490" d="M209 110.5q0 16.5 2 41.5q4 49 43 61l364 1227q-16 16 -16 45q-2 31 -2 48v46q2 29 18.5 44t47.5 13q27 0 44 1t33.5 1t36 -1t47.5 -1q59 -4 60 -59q2 -33 2 -46t-2 -46q0 -33 -19 -47l373 -1223q37 -12 37 -59q2 -33 3 -46.5t-1 -46.5l-2 3q0 -63 -61 -64q-47 -2 -80 -3 h-14q-29 0 -68 3q-59 0 -64 61q-2 31 -2 47.5v45.5q4 35 31 53l-74 250h-407l-64 -252q23 -16 23 -51q2 -33 2 -46.5t-2 -43.5q0 -63 -64 -64q-48 -2 -80 -3h-13q-28 0 -67 3q-59 0 -63 61q-2 31 -2 47.5zM586 655h309l-158 578z" />
<glyph unicode="B" horiz-adv-x="1470" d="M268 1529q0 17 2 46q4 59 66 63h72h235q150 0 254 -30.5t170 -86t95.5 -133t29.5 -171.5v-13q0 -59 -16 -117q-16 -53 -51 -111t-101 -97q92 -37 139 -100.5t70 -127.5q25 -74 27 -155v-4v2q0 -109 -37 -199t-110 -155.5t-182.5 -102.5t-256.5 -37h-178q-45 0 -77 -1h-23 q-25 0 -56 1q-61 0 -66 63q-2 31 -2 48.5t2 46.5q0 41 37 57v1206q-37 12 -41 60q-2 31 -2 48zM518 199h207q160 0 242 78.5t82 220.5v2q0 125 -81 192.5t-276 67.5h-174v-561zM518 961h137q94 0 158 17t101.5 51t55 83.5t17.5 112.5q0 98 -78 160.5t-266 62.5h-125v-487z " />
<glyph unicode="C" horiz-adv-x="1366" d="M211 846q0 207 38 360.5t105.5 255t160.5 151.5t202 50q80 0 147.5 -26.5t119.5 -71.5t87 -103.5t47 -120.5q20 -6 31 -26q6 -12 6 -31q2 -31 2 -44t-2 -46v2q0 -61 -63 -66q-31 -1 -56 -1h-22q-31 1 -78 1q-49 0 -66 41q-2 6 -2 21v29q0 12 -1 28.5t1 36.5q0 39 29 51 q-8 18 -24.5 41t-39 41.5t-51 30.5t-63.5 12q-129 0 -211 -151.5t-84 -466.5v-28q0 -198 26 -320q28 -131 72.5 -202t100 -93.5t106.5 -22.5q47 0 82 20.5t59.5 49t40 59.5t21.5 53q10 35 37.5 58.5t66.5 23.5q41 0 72 -30.5t31 -73.5q0 -23 -6 -37q-8 -31 -31 -85 t-69 -107.5t-120.5 -93.5t-187.5 -40q-252 0 -383 216.5t-131 654.5z" />
<glyph unicode="D" horiz-adv-x="1445" d="M268 1529q0 17 2 46q4 59 66 63h72h264q160 0 268.5 -68.5t174 -178t93 -243.5t27.5 -263q0 -154 -26.5 -310.5t-88 -284.5t-164 -209t-254.5 -81h-206q-45 0 -77 -1h-23q-25 0 -56 1q-59 4 -64 63q-2 31 -3 48.5t1 46.5q0 41 37 57v1206q-37 12 -41 60q-2 31 -2 48z M516 193h150q80 0 145.5 35.5t113.5 115.5t74.5 210t26.5 320q0 303 -97.5 436.5t-285.5 133.5h-127v-1251z" />
<glyph unicode="E" horiz-adv-x="1404" d="M268 110.5v45.5q4 43 37 57v1210q-31 16 -35 60q-2 31 -2 48t2 46t18.5 45t45.5 16h776q63 0 64 -63v-113v-2q0 -59 -64 -63q-31 -2 -48.5 -2t-45.5 2q-51 4 -62 51h-446v-490h248q10 45 61 50q33 2 46.5 2h43.5q63 -4 66 -68q2 -47 2 -80t-2 -80q-4 -59 -64 -63 q-31 -2 -48 -2h-46q-49 4 -59 47h-248v-569h442q10 47 62 47q33 2 46 2h46q63 -4 63 -66q0 -25 1 -36t1 -20v-20.5v-35.5q-4 -59 -65 -64q-29 -2 -45.5 -2h-38.5h-686q-59 0 -64 63q-2 31 -2 47.5z" />
<glyph unicode="F" horiz-adv-x="1366" d="M287 111.5q0 17.5 2 46.5q4 43 35 55v1212q-31 14 -31 56q-2 31 -2 48v46q2 29 18.5 45t46.5 16q14 0 24.5 1t20.5 1h-2h701q29 0 51.5 -17t22.5 -48v-36v-20.5t1 -20.5t1 -36q0 -59 -66 -63q-31 -2 -47 -2h-45q-51 4 -62 51h-428v-485l228 -3q10 47 61 48q33 2 46.5 2 h45.5q63 -4 64 -64q2 -47 2 -80v-82q-4 -59 -64 -63q-31 -2 -48 -2t-46 2q-49 4 -59 47h-230v-547q47 -10 47 -61q2 -33 2.5 -46.5t0.5 -45.5q-4 -63 -64 -64q-47 -2 -80 -2h-82q-59 4 -63 63q-2 31 -2 48.5z" />
<glyph unicode="G" horiz-adv-x="1396" d="M211 825q0 176 34 329t98.5 266.5t160.5 178t221 64.5q70 0 120 -22.5t73 -34.5q16 30 53 30h2q33 2 46 2h46q63 -4 63 -69q2 -49 2 -109.5v-107.5q-4 -63 -65 -68q-31 -2 -48.5 -2t-45.5 2q-29 2 -45.5 18.5t-16.5 47.5q0 12 -2 18q-20 37 -59 65.5t-125 30.5 q-84 0 -141.5 -57t-93 -147.5t-52 -205t-16.5 -227.5q0 -115 15.5 -231.5t53 -209.5t104 -153.5t169.5 -60.5q37 0 69.5 11.5t57 36t40 64.5t15.5 97v111v38h-129q-59 4 -63 66q-2 33 -2 50.5t2 45.5q2 29 18 47.5t47 18.5q27 0 68 1t84 1t85 -1t70 -3q29 0 45.5 -16.5 t16.5 -45.5q0 -16 1 -27.5t1 -20.5t-1 -20.5t-1 -27.5h2q-4 -49 -41 -61l2 -158q0 -72 -21.5 -143.5t-68.5 -130t-123 -94.5t-184 -36q-137 0 -238.5 67t-169.5 182.5t-100.5 270t-32.5 330.5z" />
<glyph unicode="H" horiz-adv-x="1513" d="M268 113q0 16 2 43q4 49 43 61l-2 1206q-39 12 -39 60q-2 31 -2 48v46q2 29 18.5 45t49.5 16q27 0 44 1t33.5 1t35 -1t47.5 -3q29 0 45 -16t16 -45q2 -33 2 -46v-44q-4 -51 -43 -64v-448h477v450q-37 12 -41 60q-2 31 -2 48t2 46t18.5 45t47.5 16q27 0 44 1t33.5 1t36 -1 t48.5 -3q29 0 45 -16t16 -45q2 -33 2 -46v-44q-4 -51 -45 -64v-1202q39 -12 43 -61q2 -33 2 -46.5v-45.5q-4 -63 -67 -64q-47 -2 -80 -2h-80q-59 4 -64 66q-2 31 -2 47t2 43q4 49 41 61v561h-477v-559q41 -14 41 -61q2 -33 2 -46.5v-45.5q-4 -63 -65 -64q-47 -2 -80 -2h-82 q-59 4 -64 66q-2 31 -2 47z" />
<glyph unicode="I" horiz-adv-x="829" d="M269 113q1 16 3 45q0 47 39 59v1206q-39 12 -39 60q-2 31 -2 48v46q2 29 18.5 45t47.5 16h44h33.5h36h48.5q31 0 46 -17t15 -46h2v-90q-4 -51 -43 -64v-1202q41 -14 41 -61q2 -33 2 -46.5v-45.5q-4 -63 -67 -64q-47 -2 -80 -2h-80q-59 4 -64 66q-2 31 -1 47z" />
<glyph unicode="J" horiz-adv-x="1314" d="M154 458v48q0 63 65 63q27 0 45.5 1t35.5 1t35.5 -1t49.5 -1q59 0 64 -63v-26.5v-19.5t-1.5 -20.5t-1.5 -27.5q0 -25 -11 -38.5t-19 -19.5q0 -4 -2 -4q4 -27 13 -58.5t29.5 -59t56.5 -47t95 -19.5q72 0 117 28.5t72 94.5q23 61 30 136t7 196l-3 798q-39 12 -40 62 q-2 31 -2.5 47t2.5 45q4 61 65 65q27 0 45.5 1t35.5 1t35.5 -1t49.5 -3q29 0 45 -17t16 -46q2 -33 2 -46.5v-45.5q-4 -51 -45 -64v-377v-142.5v-127.5t1 -96t1 -49q0 -123 -9 -220.5t-36 -175.5q-41 -125 -131 -193.5t-256 -68.5q-119 0 -194.5 42t-119.5 100.5t-63.5 120 t-25.5 98.5l-6 24q-10 2 -27.5 13.5t-17.5 46.5q-2 29 -2 46z" />
<glyph unicode="K" horiz-adv-x="1411" d="M268 1529q0 17 2 46t18.5 45t47.5 16q27 0 44 1t33.5 1t35 -1t47.5 -1t45 -16t18 -45q2 -33 2 -46v-46q-2 -45 -43 -62v-555l375 574q-16 14 -19 43q-2 31 -2 48t2 46t18.5 45t47.5 16q27 0 44 1t33.5 1t35 -1t47.5 -3q29 0 45 -16t16 -45q2 -33 2 -46v-46 q-4 -47 -41 -60l-411 -604l444 -602q41 -10 45 -59q2 -33 2 -46.5t-2 -45.5h2q-4 -63 -65 -64q-47 -2 -91.5 -2h-93.5q-59 4 -63 66q-2 31 -2 47t2 45q0 31 22 49l-317 446l-78 -106v-328q43 -12 43 -61q2 -33 2 -46.5v-45.5q-4 -63 -63 -64q-47 -2 -80 -2h-82q-59 4 -64 66 q-2 31 -2 47t2 45q4 47 41 59v1204q-39 12 -43 60q-2 31 -2 48z" />
<glyph unicode="L" horiz-adv-x="1366" d="M287 1526q0 16 2 49q4 61 63 61q47 2 80 2h80q63 -4 63 -65q2 -33 2.5 -46.5t0.5 -45.5q-4 -51 -50 -62v-1229h428q10 49 62 50q29 2 45 2t47 -2q63 -4 64 -64v-113v3q0 -61 -64 -66h-58.5h-139.5h-178h-178t-139.5 1t-60.5 1q-31 0 -47 16.5t-18 44.5q-2 29 -2 45.5 v49.5q2 39 35 55v1210q-31 16 -35 58q-2 29 -2 45z" />
<glyph unicode="M" horiz-adv-x="1619" d="M268 108.5v45.5q4 45 43 59v1214q-39 12 -41 58q-2 31 -2 47v45q4 57 64 61q27 0 45 1t34.5 1t35 -1t47.5 -3q25 0 38 -11t23 -36l254 -643l262 656q14 36 53 36h2q27 0 45.5 1t35 1t36 -1t47.5 -1q27 0 42.5 -16t17.5 -45q2 -33 1 -46t-1 -44q0 -47 -41 -60v-1216 q39 -12 39 -55q2 -33 2 -46.5v-46.5q-4 -61 -64 -61q-47 -2 -79.5 -2t-80.5 2q-57 0 -61 59q-2 31 -2 48.5v46.5q4 45 47 57v989q-39 -106 -77 -202.5t-70.5 -175.5t-58 -138t-40.5 -90q-25 -59 -34 -74.5t-19 -15.5t-20.5 14.5t-34.5 71.5q-12 31 -37 87t-57.5 134 t-71.5 175t-80 208v-983q43 -12 43 -57q2 -33 2 -46.5v-46.5q-4 -61 -61 -61q-47 -2 -80 -2t-82 2q-57 0 -62 59q-2 31 -2 47.5z" />
<glyph unicode="N" horiz-adv-x="1570" d="M269 110.5q-1 16.5 3 43.5q0 43 39 59v1212q-35 12 -39 60q-2 31 -2 48t2 46q4 59 62 59h69q12 0 27.5 1t46.5 -1q25 -2 36 -16t22 -31l530 -1163l-6 995q-43 12 -45 62q-2 31 -2 47t2 43q2 29 18.5 46t46.5 17h156q59 0 63 -63v-2q2 -31 3.5 -44t-1.5 -44l-2 2 q0 -45 -41 -62v-1214q35 -18 35 -55q2 -33 2 -46.5t-4 -46.5q0 -63 -61 -63h-144q-25 0 -38 11.5t-23 29.5l-516 1149l4 -975q45 -10 45 -59q2 -33 2 -46.5t-2 -43.5q0 -63 -63 -64q-47 -2 -79 -3h-13q-28 0 -66 3q-59 0 -64 61q-2 31 -3 47.5z" />
<glyph unicode="O" horiz-adv-x="1507" d="M211 809q0 233 46 396t122 264.5t172 147.5t199 46q104 0 202.5 -47t175 -148.5t122.5 -262.5t46 -388q0 -215 -43 -372.5t-116.5 -261t-172 -153.5t-208.5 -50q-106 0 -204.5 51t-174.5 154.5t-121 259t-45 364.5zM428 811q0 -184 27.5 -306t73.5 -194.5t104.5 -103.5 t120.5 -31q63 0 121.5 32t103.5 105.5t70.5 196.5t25.5 305v-2q0 332 -89 493.5t-238 161.5q-61 0 -119 -34.5t-103 -112.5t-71.5 -204t-26.5 -306z" />
<glyph unicode="P" horiz-adv-x="1394" d="M287 113v45q4 45 43 59v1204q-37 12 -41 60q-2 31 -2 48t2 46q4 59 63 63h66l266 -2q131 0 229.5 -22.5t162 -72.5t95 -133t31.5 -204q0 -131 -38 -216t-98 -135t-137 -69.5t-155 -19.5h-239l-3 -545q43 -12 43 -61q2 -33 2.5 -46.5t2.5 -45.5q-4 -63 -66 -64 q-47 -2 -80 -2h-82q-59 4 -63 66q-2 31 -2 47zM535 956h221q137 0 189 61.5t52 180.5q0 129 -63.5 187.5t-192.5 58.5h-206v-488z" />
<glyph unicode="Q" horiz-adv-x="1511" d="M211 809q0 233 46 396t122 264.5t172 147.5t199 46q104 0 202.5 -47t175 -148.5t122.5 -262.5t46 -388q0 -195 -35.5 -343t-97 -250.5t-145.5 -162t-180 -77.5q53 -23 98 -42.5t61 -25.5q41 -16 82 -30.5t76 -14.5q23 0 44.5 6t51.5 31q16 12 35 27.5t49 15.5 q29 0 45.5 -19.5t16.5 -60.5h-2q0 -35 -19.5 -71t-53.5 -65.5t-80 -48t-99 -18.5q-43 0 -78 9.5t-65.5 22.5t-59.5 28.5t-59 27.5q-14 6 -46 20.5t-73 14.5q-39 0 -63.5 -10t-53.5 -29q-37 -25 -52 -37t-44 -12q-41 0 -66.5 28.5t-25.5 69.5q0 33 16 60.5t43 50.5 q23 18 65 41.5t70 38.5q-90 23 -170 85t-140 164.5t-95 244t-35 323.5zM426 809q0 -184 27.5 -306t73.5 -196t105.5 -103.5t121.5 -29.5q63 0 121.5 32t103.5 105.5t70.5 196.5t25.5 305h-2q0 334 -89 497q-87 160 -236 160h-5q-61 0 -118.5 -34.5t-102.5 -113.5t-70.5 -205 t-25.5 -308z" />
<glyph unicode="R" horiz-adv-x="1433" d="M268 113q0 16 2 45q4 47 41 59v1204q-37 12 -41 60q-2 31 -2 48t2 46q4 59 66 63h70h280q94 0 182 -19.5t158 -68.5t112 -132t42 -208q0 -90 -17.5 -154.5t-44 -109.5t-59.5 -73.5t-62 -43.5q-10 -4 -18 -10q-8 -4 -18.5 -9t-20.5 -9l244 -580q57 -4 57 -63 q2 -33 2 -46.5v-45.5q-4 -63 -65 -64q-47 -2 -91.5 -2h-93.5q-61 4 -61 66q-2 31 -2 47v45q4 43 35 57l-222 549h-227l2 -545q41 -14 41 -61q2 -33 2 -46.5v-45.5q-4 -63 -65 -64q-47 -2 -80 -2h-82q-59 4 -64 66q-2 31 -2 47zM516 958h223q125 0 179.5 65.5t54.5 182.5 q0 98 -57.5 166t-174.5 68l-225 2v-484z" />
<glyph unicode="S" horiz-adv-x="1394" d="M231 1212q0 102 35 184.5t93.5 139.5t137 88t167.5 31q74 0 131 -15.5t100 -40t72.5 -57.5t48.5 -65q16 -31 25.5 -56.5t11.5 -29.5q45 -12 47 -64q2 -33 2 -46t-2 -46q-4 -66 -68 -68q-49 -2 -81.5 -2h-80.5q-63 0 -67 68q-2 31 -2 48v46q4 45 37 59q-2 4 -12.5 17.5 t-32 27t-53 24.5t-76.5 11q-100 0 -160 -66.5t-60 -178.5q0 -100 49.5 -149.5t133.5 -84.5q27 -10 55.5 -20.5t60.5 -22.5q63 -23 137 -55.5t137.5 -86.5t104.5 -137t41 -206q0 -66 -21.5 -148t-74.5 -154.5t-143 -122.5t-226 -50q-80 0 -146.5 21.5t-118.5 58t-89 85 t-57 101.5q-2 6 -2 9t-2 7q-23 4 -34 23.5t-11 42.5q-2 33 -2 46t2 46q4 66 65 68q49 2 90 2t92 -5q66 0 66 -63q2 -31 2 -48.5v-45.5q-4 -41 -35 -58q6 -12 17.5 -27.5t32 -29.5t52 -23.5t78.5 -9.5q119 0 184.5 75t65.5 192q0 76 -24.5 125t-69.5 83.5t-109.5 60 t-144.5 54.5q-68 23 -133.5 57.5t-117.5 87t-85 124t-33 169.5z" />
<glyph unicode="T" horiz-adv-x="1308" d="M170 1515.5q0 8.5 1 19.5t3 40q0 29 16.5 46t45.5 17h837h2q62 0 62 -65q0 -25 1 -36t1 -20.5t-1 -20.5t-1 -36q-4 -63 -64 -63q-31 -2 -47 -2t-45 2q-53 4 -61 49h-158l-2 -1229q39 -12 43 -59q2 -33 2 -46.5v-45.5q-4 -63 -66 -64q-47 -2 -79.5 -2h-81.5q-59 4 -64 66 q-2 31 -2 47t2 45q4 47 41 59v1227h-164q-10 -47 -63 -47q-31 -2 -48.5 -2t-46.5 2t-45 18.5t-16 44.5q0 27 -1 37t-1 18.5z" />
<glyph unicode="U" horiz-adv-x="1382" d="M229 1528q0 16 2 45q4 63 68 65h164q59 0 63 -63q2 -33 2 -47.5t-2 -44.5q-4 -51 -43 -64v-950q0 -86 13.5 -142.5t40 -89t67.5 -45t94 -12.5q104 0 152.5 63.5t48.5 221.5v69.5v134.5v176v197.5v198.5v178q-20 6 -35.5 21.5t-15.5 38.5q-2 33 -2 49t2 45t22.5 46 t51.5 17q27 0 45 1t35.5 1h37h47.5q29 0 46.5 -17t17.5 -46q2 -33 2 -47.5t-2 -44.5q0 -47 -43 -64v-956q0 -143 -30.5 -236.5t-85 -147.5t-130.5 -75.5t-166 -21.5q-92 0 -169.5 20.5t-134 73.5t-87.5 148t-31 247v950q-39 12 -43 58q-2 33 -2 49z" />
<glyph unicode="V" horiz-adv-x="1398" d="M209 1531q0 17 2 46t18.5 45t46.5 16q27 0 44.5 1t34 1t36 -1t47.5 -3q29 0 45.5 -16t16.5 -45q2 -33 2 -46t-2 -46q0 -41 -31 -56l231 -923l230 923q-29 14 -31 56q-2 31 -2 48t2 46t18.5 45t47.5 16q27 0 44 1t33.5 1t35 -1t46.5 -3q29 0 45.5 -16t18.5 -45 q2 -33 2 -46v-46q-4 -51 -49 -64q-16 -70 -49 -191.5t-73 -265t-81 -293t-75 -273.5t-57.5 -209t-27.5 -97q-14 -49 -31.5 -89t-41.5 -40q-23 0 -42.5 40t-35.5 91t-47 148.5t-77 255t-107.5 385t-141.5 540.5q-41 12 -43 62q-2 31 -2 48z" />
<glyph unicode="W" horiz-adv-x="1556" d="M209 1531q0 17 2 46t18.5 45t46.5 16q27 0 44.5 1t34 1t35 -1t46.5 -1q59 0 64 -63q2 -33 2 -46t-2 -44q0 -43 -35 -60l133 -845q45 154 74.5 258t49 167.5t33 91t25.5 27.5t26.5 -25.5t35 -87t51.5 -167t80 -264.5l119 845q-33 16 -35 58q-2 31 -2 48t2 46t18.5 45 t46.5 16q27 0 44.5 1t34 1t34.5 -1t47 -1q59 0 64 -63h-3q0 -16 1.5 -26.5t1.5 -19.5v-20.5v-27.5q-4 -47 -43 -60l-238 -1388q-4 -29 -12.5 -43.5t-14.5 -18.5q-8 -6 -16 -4q-10 -2 -18 4q-8 4 -17.5 16.5t-17.5 41.5l-185 587l-168 -585q-16 -51 -32.5 -58.5t-16.5 -3.5 q-6 -2 -23.5 4.5t-25.5 51.5l-266 1398q-37 12 -41 60q-2 31 -2 48z" />
<glyph unicode="X" horiz-adv-x="1421" d="M229 1535q0 17 2 46q4 55 60 55h4q27 0 44 1t33.5 1h35h47.5q55 -4 59 -59q2 -33 2 -46t-2 -44q0 -29 -16 -49l211 -412l215 412q-18 18 -19 47q-2 31 -2 48t2 46q0 55 58 55h4q27 0 44 1t33.5 1h35h46.5q57 -4 62 -59q0 -16 1 -26.5t1 -19.5t-1 -20.5t-3 -29.5 q0 -41 -37 -53l-324 -613l318 -606q43 -10 47 -57q2 -33 2 -46.5t-2 -46.5q0 -59 -64 -59q-48 -2 -80 -3h-23q-25 0 -58 1q-55 0 -60 61q-2 31 -1 45.5t1 47.5q0 10 4 20t9 19l-209 411l-203 -407q12 -18 12 -43q2 -33 2 -46.5t-2 -46.5q0 -57 -61 -61q-47 -2 -80 -2t-82 2 q-57 0 -62 61q-2 31 -2 48.5t2 46.5q0 45 48 57l311 608l-320 609q-39 12 -41 57q-2 31 -2 48z" />
<glyph unicode="Y" horiz-adv-x="1361" d="M191.5 1531q-1.5 17 1.5 46q2 29 18 45t47 16q27 0 44 1t33.5 1t35 -1t47.5 -3q29 0 45 -16t18 -45q2 -33 2 -46t-2 -46q0 -41 -30 -56l233 -575l225 575q-29 16 -28 56q-2 31 -2 48t2 46t18 45t47 16q27 0 44.5 1t33.5 1t34.5 -1t47.5 -3q29 0 45 -16t18 -45h-2 q2 -33 1 -46t-1 -46q2 -14 -4 -27q-4 -10 -14 -20.5t-27 -14.5l-340 -817v-387q18 -4 30.5 -20.5t12.5 -38.5q2 -33 2 -46.5v-45.5q-4 -63 -65 -64q-47 -2 -80 -2h-80q-63 4 -63 66q-2 31 -2 47v45q2 23 12 39t31 20v383l-344 821q-16 4 -24.5 14.5t-12.5 20.5q-6 12 -6 27 q0 31 -1.5 48z" />
<glyph unicode="Z" horiz-adv-x="1452" d="M211 104.5q2 20.5 18 45.5l742 1294h-502q-10 -43 -59 -47q-31 -2 -48.5 -2t-46.5 2t-45 18.5t-16 44.5q0 27 -1 37t-1 18.5t1 19.5t1 40q0 59 63 63h48h780q25 0 42 -7t27 -15q13 -11 21 -23q6 -16 6 -37q0 -16 -4 -40.5t-20 -53.5l-728 -1267h519q10 47 61 47 q33 2 46 2h46q63 -4 64 -66q0 -25 1 -36t1 -20t-1 -20.5t-1 -35.5q-4 -59 -62 -64q-27 -2 -42 -2h-36h-776q-20 0 -35.5 5t-25.5 13q-12 8 -23 19q-8 12 -12 31q-4 16 -2 36.5z" />
<glyph unicode="[" horiz-adv-x="1097" d="M307 -272l2 1808q0 66 10.5 84t45.5 18h55h122.5t138.5 -1t103 -1q29 0 46.5 -18.5t15.5 -46.5q0 -16 1 -19l1 -4v-3v-19q-2 -31 -18.5 -49.5t-49.5 -18.5h-256v-1657h111q45 0 87 -1t62 -1q29 0 46.5 -18.5t15.5 -48.5q0 -16 1 -20l1 -5v-4v-20q-2 -31 -18.5 -49.5 t-49.5 -18.5h-403q-4 0 -12.5 1t-10.5 3q-29 0 -38 22.5t-9 86.5z" />
<glyph unicode="\" horiz-adv-x="1038" d="M82 1563q0 29 20.5 50t49 28.5t57.5 -5t47 -49.5l692 -1474q6 -14 7 -24.5t1 -16.5q0 -41 -27.5 -64.5t-56.5 -23.5q-31 0 -52 11t-36 42l-694 1483q-8 18 -8 43z" />
<glyph unicode="]" horiz-adv-x="1099" d="M250 -293l1 4t1 21q2 31 19.5 50t45.5 19h148h110v1657h-256q-33 0 -49 18.5t-18 49.5q0 16 -1 19l-1 3l1 3q1 3 1 20q2 31 19.5 49t45.5 18h101.5h139.5t124 -1t55 -1q35 0 45.5 -18.5t10.5 -81.5v-1808l-2 -2q0 -61 -9.5 -84t-36.5 -25q-2 0 -10 -1t-12 -1h-404 q-33 0 -49 18.5t-18 49.5q0 16 -1 20z" />
<glyph unicode="_" d="M0 -150h1024v-174h-4h-1020v174z" />
<glyph unicode="`" d="M309 1341q-2 47 25.5 81t64.5 34q16 0 29.5 -7t40.5 -26l158 -110q39 -29 51 -42.5t14 -35.5l-2 -2q0 -41 -28 -59q-12 -12 -31 -13q-16 0 -58 17l-186 71q-41 16 -59.5 38t-18.5 54z" />
<glyph unicode="a" horiz-adv-x="1251" d="M211 340q0 82 31.5 145.5t80 108.5t102.5 72.5t97 40.5q35 10 68 17t61 11q29 4 56.5 4h60.5v158h2q0 4 -4 16q-2 10 -5 21.5t-9 26.5q-12 23 -41 42t-82 19q-74 0 -137 -49v-41.5t-3 -46.5q0 -63 -63 -68q-33 -2 -50.5 -2t-47.5 2q-57 0 -62 68v69v30.5t2 47.5 q0 27 16.5 43.5t45.5 18.5q8 0 16 -2q6 8 26.5 27.5t43.5 33.5q60 35 120 49q48 12 94 12h22q56 -4 105.5 -21t92.5 -44q117 -70 125 -197q2 -16 2 -31.5v-31.5v-674q43 -16 43 -59q0 -16 1 -26.5t1 -20t-1 -18.5t-3 -25q0 -66 -64 -66h-139q-18 0 -29.5 9t-15.5 22.5t-5 29 t-1 29.5v6q0 4 -4 13q-48 -59 -108 -89q-57 -28 -135 -28h-11q-76 0 -131.5 26.5t-92 73.5t-54 110.5t-17.5 137.5zM422 334q0 -47 14.5 -76t36 -45t45 -21.5t41.5 -5.5h8q47 0 103 22q62 24 98 75v266h-47.5t-42.5 -4q-27 -4 -56.5 -10.5t-64.5 -20.5q-53 -23 -94 -70 t-41 -110z" />
<glyph unicode="b" horiz-adv-x="1288" d="M248 109.5q0 17.5 2 46.5q4 53 53 59v1210q-49 6 -53 60q-2 31 -2 47t2 45q4 59 61 63h43.5t28.5 -2h74q27 0 42 -16t17 -45q2 -33 2 -46t-2 -46q0 -25 -12 -39v-356q29 35 85 56t101 21q27 0 68 -7t86 -29.5t90 -63.5t81 -106.5t58.5 -162t22.5 -227.5 q0 -92 -16.5 -193.5t-58.5 -185t-111.5 -140t-176.5 -56.5h-8q-67 0 -127 32q-63 34 -96 87v-52q-4 -61 -62 -63h-63h-26.5t-37.5 2q-59 0 -63 59q-2 31 -2 48.5zM504 475q0 -153 52 -223q49 -67 142 -66h11q98 2 142 103.5t44 281.5q0 195 -57.5 300.5t-155.5 105.5 q-47 0 -93 -19.5t-85 -64.5v-418z" />
<glyph unicode="c" horiz-adv-x="1234" d="M193 588q0 129 27.5 241.5t83.5 195.5t141 131t198 48q102 0 168 -29.5t105.5 -68.5t57 -77t23.5 -56q25 -8 35 -31q6 -12 6 -27l2 -14q0 -16 1 -24.5t1 -14.5v-2q0 -6 -1 -13t-3 -24q0 -59 -57 -65q-24 -1 -43.5 -1t-36.5 1q-33 2 -80 4q-47 0 -59 35q-2 4 -2 9t-2 11 q-2 33 -1 48.5t3 41.5q0 35 18 51q-31 35 -63.5 44.5t-63.5 9.5q-66 0 -111.5 -31t-75.5 -85t-44 -130t-14 -164q0 -203 62 -318.5t194 -115.5q35 0 79.5 14.5t85.5 67.5q27 35 49.5 48t53.5 13q41 0 69.5 -26.5t30.5 -67.5q0 -39 -20 -70q-6 -12 -21 -26q-8 -10 -17 -20.5 t-26 -24.5q-12 -12 -37.5 -28.5t-61.5 -33t-82 -28t-97 -11.5q-223 0 -349 157t-126 456z" />
<glyph unicode="d" horiz-adv-x="1312" d="M193 578q0 135 23.5 233t60 167t83 109.5t92.5 64.5t88 31t70 7q47 0 104.5 -20.5t86.5 -55.5l2 299q-63 2 -68 66q-2 33 -2 50t2 46q4 59 66 63h43t26 -2h74q57 -4 62 -63q0 -27 1 -39t1 -31v-1282q51 -6 55 -63h2q2 -29 0 -46.5t-6 -50.5q-4 -61 -60 -61q-25 0 -40 -1 t-27 -1t-27.5 1t-40.5 1q-61 0 -65 63v52q-35 -53 -97 -92q-59 -37 -130 -37h-7q-111 2 -182.5 59t-113.5 144t-59 190.5t-17 198.5zM401 578q0 -186 45.5 -283.5t143.5 -99.5h6q100 -1 152 67q54 70 55 227v418q-41 47 -88 67.5t-94 20.5q-102 -1 -162 -109 q-58 -105 -58 -295v-13z" />
<glyph unicode="e" horiz-adv-x="1241" d="M193 612q0 121 26.5 228.5t79.5 187.5t134 127t190 47q115 0 195.5 -48t131.5 -125t74 -174t23 -198q0 -43 -3.5 -66.5t-13.5 -34.5t-29.5 -14t-54.5 -3h-547q0 -164 63.5 -264.5t188.5 -100.5q33 0 62.5 4t70.5 21v29.5t2 45.5q0 55 60 60q33 2 48 2t50 -2q59 -4 60 -60 v-137q0 -18 -5.5 -28.5t-21.5 -22.5q-37 -33 -79 -53.5t-84 -31.5t-83 -16t-76 -5q-127 0 -215 47t-143 132t-79.5 200.5t-24.5 252.5zM403 733h431v8l-3 -2q0 45 -11 94.5t-35.5 89.5t-65.5 66.5t-101 26.5q-63 0 -104 -27.5t-65.5 -68.5t-35 -91.5t-10.5 -95.5z" />
<glyph unicode="f" horiz-adv-x="1093" d="M154 1061q0 47 24.5 72.5t93.5 25.5h115v82q0 211 77 304t220 93h186q29 0 48.5 -17t21.5 -46v-2v-39t-1 -27.5t-1 -28v-38.5q0 -59 -61 -64h-35h-35q-29 2 -45.5 18.5t-16.5 45.5v12h-40q-74 -2 -94.5 -62.5t-20.5 -172.5v-58h207q70 0 95.5 -21.5t25.5 -74.5 q0 -96 -115 -96h-215v-754q45 -12 45 -61v-89q0 -63 -62 -63h-159q-61 0 -66 61v93q0 45 41 59v754h-117q-61 0 -88.5 20.5t-27.5 73.5z" />
<glyph unicode="g" horiz-adv-x="1294" d="M211 612q0 92 17.5 193.5t58.5 186.5t111.5 140.5t179.5 55.5q37 0 72.5 -9.5t66.5 -25.5t55.5 -41t36.5 -53v57q0 61 61 66q25 0 38.5 1t25.5 1t26.5 -1t38.5 -1q59 0 64 -62q2 -31 2 -48t-2 -46h2q-4 -53 -55 -59v-1000q0 -131 -34 -213t-86 -127t-116.5 -60.5 t-126.5 -15.5q-76 0 -131 14.5t-84 24.5q-25 -12 -57 2q-29 12 -43.5 19.5t-38.5 21.5q-36 21 -36 54q0 15 7 32q12 25 19.5 38.5t13.5 23.5q6 12 13 26.5t22 40.5q18 34 49 34q16 0 35 -9q29 -14 41 -19.5t41 -21.5q34 -20 34 -52q0 -10 -4 -22q53 -16 117 -16q72 0 117 40 t45 112v196q-29 -35 -85 -56q-51 -20 -96 -20h-8q-27 0 -67.5 7.5t-85.5 30t-90 63.5t-82 107.5t-59.5 161.5t-22.5 228zM416 612q0 -197 58 -302t157 -107q47 0 93 20.5t85 67.5v411v3q0 154 -52 224q-49 66 -144 66h-11q-98 -2 -142 -101t-44 -282z" />
<glyph unicode="h" horiz-adv-x="1337" d="M248 110.5q0 16.5 2 45.5q4 47 45 59l-2 1208q-41 12 -43 62q-2 31 -2 47t2 45q4 59 63 63h43.5t28.5 -2h72q27 0 43 -16t18 -45q2 -33 2 -46t-2 -46q0 -33 -18 -47v-402q33 49 94 91t149 42q63 0 122 -17t103 -63.5t69.5 -127t25.5 -207.5v-539q43 -12 43 -59 q2 -33 2 -46.5t-2 -46.5q-4 -61 -64 -61q-47 -2 -79.5 -2t-79.5 2q-59 0 -64 61q-2 31 -2 48.5t2 46.5q4 45 43 57l-2 522q0 135 -39 187.5t-125 52.5q-37 0 -72.5 -15.5t-63.5 -46t-45 -76.5t-17 -108l-2 -518q37 -12 41 -57q2 -33 2 -46.5t-2 -46.5q-4 -61 -64 -61 q-47 -2 -80 -2t-80 2q-59 0 -63 61q-2 31 -2 47.5z" />
<glyph unicode="i" horiz-adv-x="788" d="M250 113q0 16 2 45q4 45 43 57v756q-39 12 -43 57q-2 31 -2 47.5t2 44.5q4 59 63 64h70h74q29 0 45 -16.5t18 -45.5q0 -16 1 -26.5t1 -19.5t-1 -20.5t-1 -27.5q0 -35 -24 -49l-2 -764q41 -12 45 -57q2 -33 2 -46.5t-2 -45.5q-4 -61 -62 -62q-49 -2 -81.5 -2t-82.5 2 q-59 0 -63 62q-2 31 -2 47zM252 1505q0 55 40 94t95 39q57 0 97 -38.5t40 -92.5l2 2q0 -55 -40 -94t-97 -41q-57 0 -97 39t-40 92z" />
<glyph unicode="j" horiz-adv-x="905" d="M115 -197q0 27 16 42.5t45 17.5q29 0 31 -2h10t23 2q61 0 65 -64v-10q16 -10 37 -10q66 0 88.5 53t22.5 170l2 967q-31 8 -41 37q-4 16 -4 20q-2 31 -2 47.5t2 44.5q4 59 63 64h57h60q41 0 57 -33q6 -12 6 -31v-41v-20v-1063q0 -119 -20.5 -198t-59 -125t-95 -64.5 t-126.5 -18.5q-59 0 -110.5 3t-63.5 6q-29 4 -46 18t-17 43v45v33.5v30v36.5zM403 1507q0 53 39 92t97 39q57 0 96 -39t39 -92t-39 -92t-96 -41q-57 0 -96.5 39t-39.5 94z" />
<glyph unicode="k" horiz-adv-x="1357" d="M248 1535q0 17 2 46q4 57 61 59h43.5t26.5 -2h28.5t45.5 -2q57 0 57 -57q2 -33 2 -46t-2 -46q0 -29 -18 -47v-662q125 152 195.5 238t107.5 129q41 51 55 65q16 20 39.5 22.5t46.5 -15.5q23 -16 33 -25.5t20 -17.5t22.5 -18.5t35.5 -29.5t23 -44q0 -20 -15 -42 q-20 -25 -29.5 -35t-32.5 -34q-21 -22 -44 -22q-20 0 -42 16l-219 -252l408 -500q45 -10 49 -59h-2q2 -33 2 -46.5v-46.5q-4 -59 -62 -59q-47 -2 -79.5 -2t-81.5 2q-59 0 -60 59q-2 31 -2 47.5t2 45.5q0 8 4 24l-315 402l-57 -68l2 -301q39 -12 39 -57q2 -33 2 -46.5v-46.5 q-4 -59 -64 -59q-47 -2 -80 -2t-82 2q-55 0 -59 59q-2 31 -2 47.5t2 45.5q4 45 45 57v1216q-45 8 -49 60q-2 31 -2 48z" />
<glyph unicode="l" horiz-adv-x="792" d="M248 1532q0 16 2 45q4 59 63 63h43.5t26.5 -2h74q29 0 45 -16t16 -45q2 -33 2 -46t-2 -44q0 -31 -18 -49v-1225q39 -12 43 -57q2 -33 2 -46.5t-2 -46.5q-4 -61 -62 -61q-49 -2 -81.5 -2t-82.5 2q-59 0 -63 61q-2 31 -2 48.5t2 46.5q4 45 43 57l2 1210q-45 8 -49 60 q-2 31 -2 47z" />
<glyph unicode="m" horiz-adv-x="1726" d="M248 108.5v45.5q4 45 43 57l2 762q-41 12 -43 55q-2 31 -2 48.5t2 47.5q4 55 59 60h37t23 -2h22t39 -2q55 0 59 -60v-25.5t-2 -29.5q39 55 100.5 87t110.5 32q76 0 129.5 -39t77.5 -105q35 53 77 81t81 42q45 16 90 21q82 0 139.5 -28t93 -75t51 -109.5t15.5 -129.5 l2 -629q41 -12 41 -59q2 -33 2 -46.5v-46.5q-4 -59 -63 -59q-47 -2 -80 -2t-82 4q-55 0 -60 57q-2 31 -2 47.5v45.5q4 45 43 57v561q0 31 -4 66.5t-18 65.5t-41 49.5t-70 19.5q-47 0 -75.5 -20.5t-45 -52.5t-22.5 -70.5t-6 -75.5l-2 -543q43 -12 43 -57q2 -33 2 -46.5v-46.5 q-4 -59 -62 -59q-47 -2 -79.5 -2t-81.5 4q-59 0 -60 57q-2 31 -2 48.5v46.5q4 45 45 57v537q0 39 -3 79.5t-15.5 74.5t-38 54.5t-72.5 20.5q-45 0 -74.5 -20.5t-48 -52.5t-26 -72.5t-7.5 -81.5v-541q43 -12 43 -57q2 -33 2.5 -46.5t0.5 -46.5q-4 -59 -64 -59q-47 -2 -80 -2 t-82 4q-55 0 -59 57q-2 31 -2 47.5z" />
<glyph unicode="n" horiz-adv-x="1347" d="M248 113q0 16 2 45q4 49 45 61v746q-43 12 -45 61q-2 31 -2 47.5t2 44.5q4 59 63 64h64h22.5t40.5 -2q59 0 64 -64v-43q37 43 103.5 78t144.5 35q61 0 119.5 -17.5t102.5 -64.5t71.5 -129t27.5 -209v-547q43 -12 43 -61q0 -16 1 -26.5t1 -20t-1 -20.5t-1 -28 q-4 -61 -61 -61q-49 -2 -82 -2t-82 2q-59 0 -64 64q-2 31 -2 48v46q4 45 43 57v531q0 139 -44 191t-122 52q-39 0 -74.5 -15t-64 -46t-46 -78t-17.5 -111v-526q39 -12 39 -57q0 -16 1 -26.5t1 -20v-20.5v-28q-4 -61 -64 -61q-49 -2 -82 -2t-82 2q-59 0 -63 64q-2 31 -2 47z " />
<glyph unicode="o" horiz-adv-x="1206" d="M193 592q0 166 34.5 280.5t92 187.5t130 104.5t148.5 31.5q84 0 160 -33t132 -103.5t90 -183t34 -274.5v-2q0 -162 -33 -278.5t-89 -190.5t-131 -108.5t-157 -34.5q-80 0 -154.5 35.5t-131 109.5t-91 187.5t-34.5 271.5zM401 594q0 -121 17.5 -200t45.5 -127t63.5 -66.5 t74.5 -18.5q43 0 79 22.5t63.5 72t43 128t15.5 193.5q1 209 -55 306q-54 95 -142 95h-4q-41 0 -77 -20.5t-63.5 -67.5t-44 -124.5t-16.5 -192.5z" />
<glyph unicode="p" horiz-adv-x="1288" d="M248 1073.5q0 16.5 2 44.5q4 61 63 62q25 0 38.5 1t25.5 1h26.5h38.5q59 -4 60 -64v-51q39 53 100 88q57 33 123 33h8q106 -2 176 -54.5t112 -134t58.5 -184.5t16.5 -203q0 -184 -40 -301.5t-101.5 -185.5t-132 -93.5t-132.5 -25.5q-45 0 -101.5 21.5t-84.5 56.5v-320 q63 -4 65 -61q2 -31 2 -47t-2 -43q-4 -59 -61 -64h-70h-73q-33 0 -47.5 10.5t-14.5 53.5v68l2 1286q-51 6 -55 61q-2 29 -2 45.5zM502 281q39 -45 85 -64.5t93 -19.5q98 0 156.5 108t58.5 307q0 180 -44 280.5t-142 104.5h-6q-97 0 -149 -69q-50 -67 -50 -210v-11z" />
<glyph unicode="q" horiz-adv-x="1286" d="M193 604q0 92 16 193.5t57 186.5t110.5 141.5t176.5 58.5h8q67 0 124 -33q60 -35 95 -88v51q4 61 62 62q25 0 39 1t26.5 1t26.5 -1t37 -1q59 0 63 -60q2 -31 2 -47v-45q-4 -53 -55 -61l2 -1203q53 -6 53 -59v2q2 -31 2 -47v-45q-2 -29 -19.5 -45.5t-45.5 -16.5h-146 q-47 0 -45 54v78q0 49 -1 145t-1 262q-29 -35 -84 -56.5t-100 -23.5q-41 0 -108.5 19.5t-133 82t-113.5 180.5t-48 314zM391 608q0 -193 58.5 -300t156.5 -107q45 0 91 19.5t83 62.5v20q0 10 1 21.5t1 27.5v144v209q0 152 -52 222q-51 68 -149 68h-6q-98 -2 -141 -104.5 t-43 -282.5z" />
<glyph unicode="r" horiz-adv-x="1167" d="M268 1071q0 16 2 45t17.5 45.5t44.5 18.5h65h23.5t42.5 -2q29 0 45 -15.5t16 -44.5v-26q35 35 91.5 66.5t125.5 31.5q68 0 136.5 -32t117.5 -83q18 -16 19 -49v-61v-23.5t-2 -36.5q0 -63 -60 -63h-94q-29 0 -45 16t-16 45v41v31q-33 23 -60.5 29t-46.5 6 q-29 0 -58.5 -12.5t-56 -39t-43 -67.5t-16.5 -98v-578q43 -12 43 -59q2 -33 2 -46.5t-2 -46.5q-4 -61 -63 -61q-47 -2 -80 -2t-80 2q-59 0 -64 61q-2 31 -2 48.5t2 46.5q4 45 43 57l2 750q-43 10 -47 59q-2 31 -2 47z" />
<glyph unicode="s" horiz-adv-x="1222" d="M192.5 193.5q-2.5 23.5 16.5 46.5q16 23 25.5 34t19.5 21q8 10 18.5 23.5t28.5 35.5q18 20 43 21.5t47 -15.5q12 -10 20.5 -16t15.5 -12t14.5 -13.5l19.5 -19.5q26 -21 26 -45q0 -9 -4 -18q33 -23 82 -39.5t101 -16.5q70 0 106.5 39t38.5 105q0 53 -38 84.5t-81 52.5 q-31 14 -61 24q-84 35 -146.5 62.5t-111.5 62.5q-59 39 -95 94.5t-40 139.5q-1 9 -1 19q1 60 23 115q26 64 72.5 112.5t113 78t144.5 29.5q59 0 121.5 -12t117.5 -47q6 -6 11 -9q4 -2 6 -4q15 8 30 8q20 0 42 -14q27 -20 37 -28.5t34 -30.5q27 -21 27 -45q0 -20 -19 -43 q-14 -18 -24 -31.5t-19.5 -26t-19.5 -24.5t-27 -31q-22 -27 -46 -27q-19 0 -40 17q-27 18 -40 28.5t-33 28.5q-25 24 -25 50q0 11 4 22q-41 16 -66.5 22.5t-64.5 8.5q-35 0 -64.5 -11.5t-51 -32t-33 -46t-9.5 -56.5q4 -47 40 -78.5t89 -58.5q53 -25 118 -47.5t124 -52.5 q61 -33 102 -65t64.5 -66.5t34 -78t10.5 -98.5q0 -66 -27.5 -125t-76 -105t-117 -73.5t-152.5 -27.5q-76 0 -152.5 19.5t-144.5 72.5q-10 -4 -21 -4q-20 0 -40 16q-25 18 -38 28.5t-36 31.5q-20 18 -22.5 41.5z" />
<glyph unicode="t" horiz-adv-x="1038" d="M135 1057q0 49 22.5 76.5t73.5 27.5l97 -2v213q0 57 25.5 80t76.5 23q57 0 79.5 -25t22.5 -76v-196v-17h224q63 0 86.5 -21.5t23.5 -68.5q0 -45 -20.5 -73.5t-75.5 -28.5h-238v-586q0 -103 18 -149q17 -44 78 -44h5h14h17l2 17q0 59 61 63q16 2 24.5 2h14.5h37 q59 -4 63 -63v-72v-27.5t-2 -43.5q0 -29 -15 -46.5t-44 -19.5h-55.5h-56h-43.5h-19q-86 0 -147.5 35t-98.5 88q-35 49 -46 110.5t-11 169.5v566l-111 2q-33 0 -57.5 21.5t-24.5 64.5z" />
<glyph unicode="u" horiz-adv-x="1347" d="M229 1072q0 9 1 20.5t1 27.5q4 61 64 62q49 2 82 2t82 -2q61 0 61 -64q2 -31 2 -48v-46q-4 -45 -43 -57l-2 -531q0 -139 41 -195.5t127 -56.5q39 0 75 17.5t64.5 50.5t46 81t17.5 111v525q-39 12 -39 57q0 16 -1 26.5t-1 19.5t1 20.5t1 27.5q4 61 61 62q49 2 82 2t82 -2 q59 0 64 -64q2 -31 2 -47t-2 -45q-4 -51 -43 -59l-2 -752q41 -12 45 -59q2 -31 2 -48.5t-2 -46.5h2q-4 -59 -66 -63h-61h-23.5t-42.5 2q-59 0 -63 63v21.5t2 21.5q-37 -43 -103.5 -79.5t-144.5 -36.5q-66 0 -124 18.5t-102 66.5t-71 131t-27 210l2 549q-41 12 -45 61 q0 16 -1 26.5t-1 19.5z" />
<glyph unicode="v" horiz-adv-x="1214" d="M170 1076.5q0 17.5 2 47.5q4 57 59 58q27 0 45.5 1t35 1t36 -1t47.5 -3q55 0 60 -58v-26.5v-19.5v-20.5v-27.5q0 -20 -7.5 -30.5t-19.5 -20.5l182 -543l176 543q-25 18 -26 51q-2 31 -2 48.5t2 45.5q4 57 61 60q27 0 45.5 1t35 1t35.5 -1t48 -3q57 0 57 -60v2 q2 -33 2 -46v-46q-4 -47 -45 -59l-352 -973q-6 -16 -16 -28.5t-23 -12.5q-14 0 -22 13.5t-15 29.5q-2 4 -25.5 68.5t-59 163t-78.5 215t-83 223t-71 189.5t-43 114q-35 12 -39 55q-2 31 -2 48.5z" />
<glyph unicode="w" horiz-adv-x="1337" d="M170 1075.5q0 16.5 2 44.5q4 59 59 60q27 0 45.5 1t36 1t36 -1t48.5 -1q57 0 58 -60q2 -33 2 -46t-2 -46q0 -43 -37 -57l114 -516q31 96 51.5 160.5t34.5 105.5q16 47 27 74q8 25 21.5 25.5t21.5 -23.5q10 -25 25 -70q12 -39 32.5 -104.5t53.5 -165.5l119 516 q-16 8 -25.5 20.5t-9.5 34.5q0 31 -1 48.5t1 45.5q4 57 59 58q27 0 45.5 1t34.5 1t35.5 -1t48.5 -1q55 -1 59 -60q2 -33 2 -46t-2 -44q-4 -47 -41 -59l-252 -959q-16 -59 -39.5 -59t-39.5 51q-10 31 -27 84q-14 47 -37.5 123t-60.5 192q-16 -53 -39 -120.5t-43 -126.5 q-23 -70 -49 -142q-20 -57 -42 -57t-38 59l-248 957q-35 12 -37 55q-2 31 -2 47.5z" />
<glyph unicode="x" horiz-adv-x="1206" d="M209 106.5q0 16.5 4 45.5q0 37 33 53l248 393l-242 381q-33 16 -33 53q-2 31 -2 47.5v44.5q0 57 62 58q27 0 44 1t33.5 1t34 -1t45.5 -1q27 0 43.5 -15.5t18.5 -40.5v-47t-2 -47q0 -29 -19 -47l125 -215l131 217q-18 18 -18 45q-2 31 -2 47.5t2 44.5q0 57 59 58 q27 0 44.5 1t33.5 1t34.5 -1t47.5 -1q57 0 57 -58q2 -33 2 -46v-46q0 -43 -37 -55l-243 -379l241 -389q37 -12 41 -57q2 -33 2 -46.5t-2 -46.5q-4 -57 -61 -57q-47 -2 -79 -2t-79 2q-55 0 -59 57q-2 31 -2 48.5t4 46.5q0 29 18 45l-135 225l-135 -223q25 -18 22 -49 q2 -33 2.5 -46.5t0.5 -46.5q0 -57 -58 -61h-83t-79 4q-59 4 -61 57q-2 31 -2 47.5z" />
<glyph unicode="y" horiz-adv-x="1263" d="M135 -260.5q0 16.5 2 45.5q0 27 16.5 42t45.5 17h41h13t23 -2q59 -4 62 -59q53 8 76.5 49t40.5 90l110 305l-311 744q-41 12 -41 57q-2 31 -2 47.5t2 44.5q2 29 17.5 45.5t43.5 16.5q27 0 44.5 1t34 1t36 -1t47.5 -1q27 0 42.5 -16.5t15.5 -43.5q0 -16 1 -26.5t1 -19.5 t-1 -20.5t-1 -27.5q0 -35 -25 -49l197 -526l174 524q-29 14 -31 55q-2 31 -2 47.5v42.5q2 29 18.5 45.5t44.5 16.5q27 0 44.5 1t34 1t36 -1t47.5 -1q27 0 42.5 -16.5t17.5 -45.5l-2 2q2 -33 2 -46t-2 -44q0 -43 -35 -59l-410 -1114q-33 -90 -68.5 -145.5t-74.5 -86t-82 -40 t-92 -9.5h-26.5t-36 -1t-37 -1h-29.5q-59 4 -64 64v69v28.5z" />
<glyph unicode="z" horiz-adv-x="1183" d="M193 96q0 41 9 72t34 70l479 755h-293v-16q0 -59 -62 -64q-31 -2 -47 -2t-45 2q-59 4 -63 64v70v28.5t2 46.5q0 27 16.5 42.5t44.5 17.5h43h545q47 0 77 -22.5t30 -69.5q0 -37 -2.5 -58.5t-24.5 -56.5l-481 -758l-17 -27l336 3v16q0 27 16.5 42t45.5 15q33 2 46 2t46 -2 q61 -4 61 -61q2 -47 2 -71t-2 -71q0 -61 -61 -61q-29 -2 -45.5 -2h-40.5h-559q-47 0 -68.5 30.5t-21.5 65.5z" />
<glyph unicode="|" d="M438 1638h144l2 -1994h-144z" />
<glyph unicode="~" horiz-adv-x="1021" d="M4 1145q78 131 140.5 185t140.5 52q23 0 44 -3t50 -12t67.5 -24.5t94.5 -39.5q49 -23 80.5 -36.5t53 -21.5t34 -11t24.5 -3q53 -2 97 40t98 140l88 -86h2q-76 -129 -138.5 -183.5t-140.5 -51.5q-20 0 -36.5 2t-41 10t-61.5 22.5t-96 38.5q-16 6 -49 21.5t-43 21.5 q-53 23 -75 29t-44 6q-55 2 -98 -39t-103 -145z" />
<glyph unicode="&#xa1;" horiz-adv-x="817" d="M270 1051q0 57 40 97t100 40q57 0 97 -40t40 -97l-2 -2q0 -57 -40 -97.5t-97 -38.5q-57 0 -97.5 40t-40.5 98zM295 -319l8 931q0 61 21.5 88t76.5 29q59 0 76 -28.5t19 -92.5l12 -921v-13q0 -66 -18.5 -96.5t-83.5 -30.5q-39 0 -60.5 8.5t-33 23.5t-14.5 39t-3 56v7z" />
<glyph unicode="&#xa2;" horiz-adv-x="1230" d="M193 653q0 117 23.5 220.5t69.5 184.5t115.5 134t163.5 72l-2 182q0 31 13.5 48t37.5 30q25 10 56.5 1t48.5 -42q2 -4 4 -13.5t2 -21.5v-184q76 -12 126 -43t80 -67t43 -68.5t17 -49.5q29 -10 39 -30q4 -4 5 -12.5t1 -28.5l2 2v-76q0 -55 -57 -62q-47 -2 -80 -1t-80 1 q-43 0 -53 35l-6 19q-2 33 -2 49t2 45q0 33 24 49q-35 39 -69.5 49t-69.5 10q-68 0 -115 -31.5t-76.5 -88t-43 -133t-13.5 -166.5q0 -201 63.5 -320t196.5 -119q35 0 82 14.5t90 69.5q27 35 48.5 47.5t50.5 12.5q41 0 68.5 -26t27.5 -66q0 -16 -5 -34t-13 -34 q-8 -12 -21 -25q-8 -10 -17 -20t-26 -25q-23 -18 -78 -49t-137 -45v-186q0 -31 -13.5 -48.5t-37.5 -29.5q-25 -10 -56.5 -1t-48.5 42q-2 4 -4 13t-2 24v192q-180 35 -277 186.5t-97 413.5z" />
<glyph unicode="&#xa3;" horiz-adv-x="1681" d="M184 268q0 55 19.5 106.5t55.5 90.5t86 61.5t112 22.5q53 0 106 -16.5t117 -53.5q2 33 -2 60.5t-14 66.5q-6 37 -13.5 64.5t-14.5 52.5t-15.5 48.5t-20.5 49.5h-37.5h-59.5h-61.5h-42.5q-39 2 -65.5 20.5t-26.5 71.5q0 47 22.5 66.5t67.5 19.5l162 -2q-8 37 -11 73t-5 65 q-2 33 -2 63q-8 96 18.5 178t82.5 142.5t138 92t183 27.5q92 -4 157.5 -46t106.5 -103q25 2 43 -12q10 -10 16 -25q12 -25 17.5 -35t17.5 -37q23 -55 -27 -80q-39 -18 -65.5 -30.5t-67.5 -28.5q-41 -20 -63 12l-7.5 7.5l-7.5 7.5q-12 25 -19 39t-17 36q-14 37 10 58 q-27 27 -59.5 40t-59.5 13q-59 0 -99 -21.5t-63.5 -58.5t-34 -84t-10.5 -98t6 -102.5t15 -92.5h235.5t124.5 2q37 0 44 -2t7 2q90 0 86 -96q0 -29 -19.5 -56.5t-45.5 -27.5h-82q-45 0 -118 -1t-183 1q10 -33 17 -62.5t16 -51.5q6 -23 8 -36.5t6 -13.5q6 -23 11 -55.5 t8 -72.5t2 -84t-7 -87q8 -8 38 -34.5t71 -55.5q43 -33 90 -57.5t84 -26.5q47 0 71.5 14.5t40.5 57.5l7 12q-20 8 -28.5 24.5t-8.5 35.5q-2 27 -3 39t1 41q4 57 59 57q43 2 71.5 2t69.5 -2q47 -2 62 -45v-12q2 -27 2 -41.5t-2 -36.5h2v-2q-2 -45 -41 -62q0 -55 -24.5 -102 t-66.5 -83t-97.5 -55.5t-118.5 -17.5q-82 0 -172 43t-176 129q-68 -96 -153 -137t-175 -41q-61 0 -112.5 20.5t-88.5 57.5t-58.5 86t-21.5 104zM369 264q0 -45 28.5 -66.5t69.5 -23.5q53 0 97 32t73 85q-20 14 -42 27.5t-44 23.5q-49 27 -94 29q-45 0 -66.5 -30t-21.5 -77z " />
<glyph unicode="&#xa4;" horiz-adv-x="1363" d="M84 260l203 199q-51 70 -76 138.5t-25 147.5q-2 82 22.5 150t78.5 139l-203 201l104 106l201 -204q74 53 142.5 76.5t150.5 25.5q80 0 147.5 -22.5t141.5 -73.5l198 196l103 -104l-199 -195q53 -72 78 -141.5t27 -153.5q0 -80 -22.5 -146.5t-76.5 -137.5l201 -199 l-104 -106l-197 200q-135 -102 -295 -102q-80 0 -148.5 23.5t-146.5 78.5l-201 -200zM362 748q0 -68 25 -126.5t69 -103.5t102 -70.5t124 -25.5q68 0 126 24.5t101 69.5t67.5 104.5t24.5 127.5l3 -3q0 66 -26 125.5t-69 103.5t-100 69.5t-121 25.5q-68 0 -127 -25.5 t-104 -68.5t-70 -101.5t-25 -125.5z" />
<glyph unicode="&#xa5;" horiz-adv-x="1513" d="M191.5 861.5q1.5 27.5 15.5 50t41 22.5h274l-205 489q-16 2 -24 12.5t-12 20.5q-6 12 -7 27q-2 31 -2 48t2 46t18.5 45t47.5 16q27 0 44 1t33.5 1t35 -1t47.5 -3q29 0 45 -16t18 -45q2 -33 2 -46t-2 -46q0 -41 -31 -56l234 -575l225 575q-29 16 -28 56q-2 31 -2 48v46 q2 29 18 45t49 16q27 0 44.5 1t33.5 1t34.5 -1t47.5 -3q29 0 45 -16t16 -45q2 -33 1 -46t-1 -46q2 -14 -4 -27q-4 -10 -14 -20.5t-27 -14.5l-205 -487h265h2q27 0 41 -22.5t14 -50t-15.5 -50.5t-45.5 -23h-320l-57 -141h321q27 0 41.5 -22.5t14.5 -49t-14.5 -49t-45.5 -22.5 h-336v-287q18 -4 30.5 -20.5t12.5 -38.5q2 -33 2 -46.5v-45.5q-4 -63 -65 -64q-47 -2 -80 -2h-80q-59 4 -63 66q-2 31 -2.5 47t-0.5 45q2 23 12.5 39t31.5 20v285h-353q-29 0 -43 22.5t-13 50t15.5 50t40.5 22.5h332l-59 141h-334q-29 0 -43.5 23t-13 50.5z" />
<glyph unicode="&#xa7;" horiz-adv-x="1353" d="M227 764q-4 90 30 159.5t112 129.5q-45 59 -63.5 113.5t-18.5 117.5q0 74 28.5 138.5t77.5 113.5t117 77.5t147 28.5q72 0 136.5 -19t117.5 -60q18 6 39 0q14 -6 23 -19q23 -23 31 -33t26 -34q39 -49 -2 -95q-35 -31 -58.5 -51t-58.5 -49q-37 -31 -75 -6q-12 8 -15 14 l-34 34t-29 34q-29 35 -6 72q-39 18 -99 22q-78 0 -121 -42t-45 -116q0 -45 26 -72.5t60 -50.5l50 -30q6 -4 25.5 -15.5t43 -26t45 -26.5t31.5 -18q25 -14 53.5 -30.5t63.5 -39.5q45 -29 74.5 -53.5t56.5 -46.5q51 -49 79.5 -107t32.5 -121q4 -86 -30.5 -153.5 t-118.5 -136.5h2l4 -5q14 -14 27.5 -29.5t23.5 -31.5q20 -29 37 -70t17 -94q0 -78 -28 -145.5t-78 -118.5t-120.5 -81t-158.5 -34q-104 -4 -193.5 34t-142.5 97q-25 -6 -43 11q-12 8 -19 16q-18 23 -28.5 36t-26.5 36q-33 49 16 86q20 16 34.5 26.5t27 20.5t28 21.5 t39.5 27.5q33 23 62 4q14 -8 22 -20q20 -25 28.5 -35t27.5 -35q29 -41 4 -76q31 -29 63.5 -44t73.5 -17q104 0 155.5 52t51.5 126q0 31 -13.5 52.5t-40.5 41.5q-12 10 -28.5 21.5t-34.5 23.5q-20 10 -43 22.5t-47 26.5q-31 18 -73 43t-85 52.5t-82 53t-61 44.5 q-43 35 -70.5 64.5t-45 59t-25 61.5t-9.5 73zM424 782q2 -55 65.5 -107t200.5 -130q12 -8 33 -19q16 -10 39.5 -21t54.5 -28q10 8 19.5 13.5t13.5 9.5q4 2 7 3t5 3t4 2h-2q33 25 54.5 55.5t21.5 79.5h-2q0 43 -48 88t-153 109q-23 10 -51 28q-25 14 -61.5 37t-83.5 51 q-18 -10 -33.5 -23t-32.5 -30l-6 -6v2q-20 -27 -33.5 -53.5t-11.5 -63.5z" />
<glyph unicode="&#xa8;" d="M184 1464q0 55 39 94t96 37q55 0 94.5 -38.5t39.5 -94.5v-2q0 -55 -39 -94t-97 -37q-55 0 -94 39t-39 96zM567 1466q0 55 39 94t96 37q55 0 94.5 -38.5t39.5 -94.5v-2q0 -55 -39 -94t-97 -37q-55 0 -94 39t-39 96z" />
<glyph unicode="&#xa9;" horiz-adv-x="1589" d="M80 680q0 147 55 277t152.5 227.5t227.5 154t278 56.5q147 0 277 -55.5t227.5 -152.5t152.5 -227.5t55 -277.5v2q0 -147 -56 -277.5t-152.5 -226.5t-225.5 -152.5t-274 -56.5q-147 0 -278.5 55.5t-228.5 151.5t-153.5 225t-56.5 277zM193 688q0 -125 47 -235.5 t128 -193.5t190.5 -132t232.5 -49t232.5 47t190 130t128 193.5t47.5 235.5v-2q0 125 -47.5 235.5t-128 193.5t-189.5 131t-231 48q-125 0 -234.5 -47t-190.5 -129t-128 -192.5t-47 -233.5zM401 688q0 94 30 174t84 136.5t129 88t165 31.5q74 0 138.5 -21.5t112.5 -60.5 t78.5 -92t37.5 -117l-138 -2q-18 84 -77.5 130t-151.5 46q-121 0 -193.5 -83.5t-72.5 -225.5q-2 -143 70.5 -227t191.5 -86q102 0 163.5 58.5t75.5 168.5h140l2 2q-6 -78 -36 -142.5t-80 -109.5t-116.5 -69.5t-146.5 -24.5q-90 0 -164 31t-128 87t-84 134t-30 174z" />
<glyph unicode="&#xab;" horiz-adv-x="1028" d="M172 571q0 10 5 22.5t13 22.5l195 267q10 12 16.5 17t12.5 9q18 12 39 15q29 0 48 -13.5t17 -33.5q0 -18 -6 -33l-141 -275l112 -264q4 -10 6.5 -17t4.5 -14q0 -23 -19.5 -37t-48.5 -14q-37 0 -64 41l-172 262q-8 10 -13 23.5t-5 21.5zM508 569q0 10 5 22.5t13 22.5 l195 267q10 12 16 17t13 9q16 12 36 15q29 0 48.5 -13.5t21.5 -34.5v3q0 -14 -10 -35l-139 -275l110 -264q4 -10 6 -17l4 -14q0 -23 -18 -37t-47 -14q-35 0 -64 41l-172 262q-8 10 -12 23.5t-6 21.5z" />
<glyph unicode="&#xac;" d="M18 551l988 2v-553h-136l2 420l-852 -2z" />
<glyph unicode="&#xad;" horiz-adv-x="849" d="M193 561q0 61 29.5 86t107.5 25h190q76 0 106.5 -25t30.5 -84t-30.5 -81.5t-120.5 -22.5h-168q-86 0 -115.5 21.5t-29.5 80.5z" />
<glyph unicode="&#xae;" d="M109 1155q0 82 31.5 155.5t86 127t128 85t157.5 31.5q82 0 155.5 -31.5t128 -85t86 -127t31.5 -155.5t-31.5 -154.5t-86 -126t-128 -85t-155.5 -31.5q-84 0 -157.5 31.5t-128 85t-86 126t-31.5 154.5zM182 1155q0 -68 25.5 -127t71 -104t105.5 -71t128 -26t127 26t104 71 t71 104t26 127t-26 128t-70 104.5t-104 70t-128 25.5t-128 -25.5t-105.5 -70t-71 -104.5t-25.5 -128zM342 956v408h188q158 0 158 -117q0 -29 -14.5 -53.5t-44.5 -40.5l16 -12l19 -23q8 -8 10 -26q6 -16 6 -31l4 -29l2 -26l2 -17q0 -6 1 -11t7 -24h-73q-6 14 -8.5 23.5 t-4.5 44.5q-2 33 -6 52.5t-15 29.5t-29.5 14t-49.5 4h-90v-166h-78zM418 1180h92q104 0 104 61t-96 62h-100v-123z" />
<glyph unicode="&#xaf;" d="M207 1505q0 47 22.5 75t65.5 24l90 -7q12 -2 49 -2h58h32h117q63 6 82 7q43 0 67.5 -24t24.5 -67l2 2q0 -94 -96 -94q-14 0 -32.5 1t-41.5 1q-49 6 -123 6h-24q-43 0 -74 -1t-51 -3q-25 -2 -43.5 -3t-32.5 -1q-92 0 -92 86z" />
<glyph unicode="&#xb1;" d="M16 268l990 2l-2 -149l2 2l-988 -2zM16 874l422 -2l-2 396h150v-394h418l2 -147h-420l2 -371l-150 -2l2 373l-422 -2z" />
<glyph unicode="&#xb4;" d="M332 1442q0 25 12 38t51 42l156 108q27 18 40 26.5t27 10.5q39 0 66 -34t29 -81h-2q0 -33 -18.5 -53t-59.5 -37l-184 -73q-41 -16 -58 -17q-35 0 -55 41q-6 16 -4 29z" />
<glyph unicode="&#xb8;" d="M344 -274q0 23 14.5 38t36.5 15q18 0 39 -17q8 -4 21.5 -13t19.5 -11q10 -6 21.5 -8t21.5 -4q25 0 41 14t16 35q2 23 -15 37t-44 14q-18 0 -33 -6q-4 0 -11 -3t-9 -5q-10 -4 -19 0q-41 0 -41 36q0 12 11 41q2 4 7 18.5t13 32t15.5 34t13.5 26.5h121l-31 -78 q164 -8 164 -147v4q0 -74 -52.5 -121t-134.5 -49q-76 0 -130 34.5t-56 82.5z" />
<glyph unicode="&#xbb;" horiz-adv-x="1026" d="M172 268q0 10 2 17.5t6 17.5l142 275l-111 264q-8 16 -12 28q0 23 19.5 37.5t47.5 16.5q37 0 64 -41l172 -267q8 -10 13 -22t3 -21v2q0 -10 -5 -22t-13 -23l-193 -264q-10 -12 -16 -18t-12 -10q-16 -14 -39 -17q-29 0 -48.5 13.5t-19.5 33.5zM508 268q0 18 8 33l141 274 l-110 265q-8 16 -12 28q0 23 19 37.5t48 16.5q37 0 64 -41l172 -267q6 -10 11 -22t5 -21v2q0 -10 -5 -22t-13 -23l-193 -264q-10 -12 -16 -18t-13 -10q-16 -14 -39 -17q-29 0 -48 13.5t-19 35.5z" />
<glyph unicode="&#xbf;" horiz-adv-x="1458" d="M231 31q0 156 79 254t233 176q43 23 70.5 42t43 41.5t21.5 50.5t10 67q4 72 29.5 96t79.5 24q100 0 100 -120q0 -63 -3 -104.5t-26 -84.5q-23 -47 -52.5 -75.5t-88.5 -63.5q-6 -4 -23.5 -14.5t-36 -20.5t-35 -20.5t-20.5 -12.5q-31 -18 -61.5 -38.5t-56 -48t-41 -63.5 t-15.5 -87q0 -68 22.5 -120t61.5 -89t90.5 -55.5t110.5 -18.5q109 0 177.5 46t96.5 106q-43 12 -43 61q-2 33 -3 46t1 46q0 61 68 66q25 0 40 1t30.5 1t32 -1t40.5 -1q59 -4 64 -64q2 -31 2 -47t-2 -45q0 -8 -1 -18.5t-3 -10.5q-16 -84 -57.5 -153.5t-106 -120.5t-150.5 -80 t-190 -29q-109 0 -199 35t-154.5 98.5t-99.5 151.5t-35 197zM655 1051q0 57 40 97t98 40q57 0 97 -40t40 -97t-40 -97.5t-97 -40.5t-97.5 40t-40.5 98z" />
<glyph unicode="&#xc0;" horiz-adv-x="1490" d="M209 110.5q0 16.5 2 41.5q4 49 43 61l364 1227q-16 16 -16 45q-2 31 -2 48v46q2 29 18.5 44t47.5 13q27 0 44 1t33.5 1t36 -1t47.5 -1q59 -4 60 -59q2 -33 2 -46t-2 -46q0 -33 -19 -47l373 -1223q37 -12 37 -59q2 -33 3 -46.5t-1 -46.5l-2 3q0 -63 -61 -64q-47 -2 -80 -3 t-82 3q-59 0 -64 61q-2 31 -2 47.5v45.5q4 35 31 53l-74 250h-407l-64 -252q23 -16 23 -51q2 -33 2 -46.5t-2 -43.5q0 -63 -64 -64q-47 -2 -79.5 -3t-80.5 3q-59 0 -63 61q-2 31 -2 47.5zM538 1935q-2 47 25.5 81t64.5 34q16 0 29.5 -7t40.5 -26l158 -110q39 -29 51 -42.5 t14 -35.5l-2 -2q0 -41 -28 -59q-12 -12 -31 -13q-16 0 -58 17l-186 71q-41 16 -59.5 38t-18.5 54zM586 655h309l-158 578z" />
<glyph unicode="&#xc1;" horiz-adv-x="1519" d="M209 110.5q0 16.5 2 41.5q4 49 43 61l364 1227q-16 16 -16 45q-2 31 -2 48v46q2 29 18.5 44t47.5 13q27 0 44 1t33.5 1t36 -1t47.5 -1q59 -4 60 -59q2 -33 2 -46t-2 -46q0 -33 -19 -47l373 -1223q37 -12 37 -59q2 -33 3 -46.5t-1 -46.5l-2 3q0 -63 -61 -64q-47 -2 -80 -3 t-82 3q-59 0 -64 61q-2 31 -2 47.5v45.5q4 35 31 53l-74 250h-407l-64 -252q23 -16 23 -51q2 -33 2 -46.5t-2 -43.5q0 -63 -64 -64q-47 -2 -79.5 -3t-80.5 3q-59 0 -63 61q-2 31 -2 47.5zM533 1813q0 25 12 38t51 42l156 108q27 18 40 26.5t27 10.5q39 0 66 -34t29 -81h-2 q0 -33 -18.5 -53t-59.5 -37l-184 -73q-41 -16 -58 -17q-35 0 -55 41q-6 16 -4 29zM586 655h309l-158 578z" />
<glyph unicode="&#xc2;" horiz-adv-x="1490" d="M209 110.5q0 16.5 2 41.5q4 49 43 61l364 1227q-16 16 -16 45q-2 31 -2 48v46q2 29 18.5 44t47.5 13q27 0 44 1t33.5 1t36 -1t47.5 -1q59 -4 60 -59q2 -33 2 -46t-2 -46q0 -33 -19 -47l373 -1223q37 -12 37 -59q2 -33 3 -46.5t-1 -46.5l-2 3q0 -63 -61 -64q-47 -2 -80 -3 t-82 3q-59 0 -64 61q-2 31 -2 47.5v45.5q4 35 31 53l-74 250h-407l-64 -252q23 -16 23 -51q2 -33 2 -46.5t-2 -43.5q0 -63 -64 -64q-47 -2 -79.5 -3t-80.5 3q-59 0 -63 61q-2 31 -2 47.5zM442 1819q0 23 12.5 39t38.5 34l185 131q18 12 34.5 17.5t28.5 7.5q16 0 31.5 -6 t38.5 -23l178 -131q27 -18 38 -31.5t11 -33.5q0 -29 -16.5 -47.5t-42.5 -14.5q-10 0 -24.5 1t-27.5 5l-186 78l-184 -76q-16 -6 -28.5 -9t-20.5 -5q-29 0 -47.5 18.5t-18.5 45.5zM586 655h309l-158 578z" />
<glyph unicode="&#xc3;" horiz-adv-x="1490" d="M209 110.5q0 16.5 2 41.5q4 49 43 61l364 1227q-16 16 -16 45q-2 31 -2 48v46q2 29 18.5 44t47.5 13q27 0 44 1t33.5 1t36 -1t47.5 -1q59 -4 60 -59q2 -33 2 -46t-2 -46q0 -33 -19 -47l373 -1223q37 -12 37 -59q2 -33 3 -46.5t-1 -46.5l-2 3q0 -63 -61 -64q-47 -2 -80 -3 t-82 3q-59 0 -64 61q-2 31 -2 47.5v45.5q4 35 31 53l-74 250h-407l-64 -252q23 -16 23 -51q2 -33 2 -46.5t-2 -43.5q0 -63 -64 -64q-47 -2 -79.5 -3t-80.5 3q-59 0 -63 61q-2 31 -2 47.5zM424 1849q0 20 9.5 48t25.5 55q23 41 62 65.5t79 24.5q29 0 60 -8.5t92 -32.5 q23 -10 40 -16.5t30 -12.5q43 -12 63 -10q35 0 58 20l43 41q18 14 32 15q45 0 56 -52h-2q0 -41 -19.5 -80.5t-48.5 -70.5q-25 -27 -55.5 -42t-59.5 -15q-27 0 -66.5 11t-99.5 38q-20 10 -35.5 16t-25.5 10q-25 10 -45 6q-27 0 -51 -12q-10 -4 -24.5 -16.5t-22.5 -20.5 l-11 -10q-16 -14 -30 -14q-20 0 -36 17.5t-18 45.5zM586 655h309l-158 578z" />
<glyph unicode="&#xc4;" horiz-adv-x="1490" d="M209 110.5q0 16.5 2 41.5q4 49 43 61l364 1227q-16 16 -16 45q-2 31 -2 48v46q2 29 18.5 44t47.5 13q27 0 44 1t33.5 1t36 -1t47.5 -1q59 -4 60 -59q2 -33 2 -46t-2 -46q0 -33 -19 -47l373 -1223q37 -12 37 -59q2 -33 3 -46.5t-1 -46.5l-2 3q0 -63 -61 -64q-47 -2 -80 -3 t-82 3q-59 0 -64 61q-2 31 -2 47.5v45.5q4 35 31 53l-74 250h-407l-64 -252q23 -16 23 -51q2 -33 2 -46.5t-2 -43.5q0 -63 -64 -64q-47 -2 -79.5 -3t-80.5 3q-59 0 -63 61q-2 31 -2 47.5zM409 1886q0 55 39 94t96 37q55 0 94.5 -38.5t39.5 -94.5v-2q0 -55 -39 -94t-97 -37 q-55 0 -94 39t-39 96zM586 655h309l-158 578zM792 1888q0 55 39 94t96 37q55 0 94.5 -38.5t39.5 -94.5v-2q0 -55 -39 -94t-97 -37q-55 0 -94 39t-39 96z" />
<glyph unicode="&#xc5;" horiz-adv-x="1488" d="M209 112.5q0 16.5 2 45.5q4 49 43 61l364 1219q-16 16 -16 43q-2 33 -2 49t2 45q0 59 64 63q27 0 44 1t33.5 1t35 -1t46.5 -1q63 0 64 -63q2 -33 2 -46t-2 -46q0 -33 -19 -47l369 -1219q39 -12 39 -59q2 -33 2 -46t-2 -46q-2 -29 -18.5 -47.5t-47.5 -16.5 q-47 -2 -78.5 -2t-78.5 2q-59 0 -64 61q-2 33 -2 49.5t2 45.5q0 35 27 51l-74 252h-403l-66 -252q23 -18 23 -53q4 -31 4 -44.5t-2 -45.5q-2 -29 -18.5 -47.5t-47.5 -16.5q-47 -2 -79.5 -2t-80.5 2q-59 0 -63 61q-2 33 -2 49.5zM547 1950q0 90 56 146t142 56t140.5 -55 t54.5 -141q0 -90 -55.5 -147.5t-141.5 -57.5t-141 55.5t-55 143.5zM592 655h301l-154 568zM670 1948q2 -37 22.5 -60.5t48.5 -23.5q33 0 53.5 24.5t20.5 61.5v4q0 39 -19.5 62.5t-54.5 23.5q-29 0 -50 -23.5t-21 -64.5v-2v-2z" />
<glyph unicode="&#xc6;" horiz-adv-x="2123" d="M209 113q0 16 2 43q4 49 43 61l436 1221q-16 16 -18 45q-2 31 -2 47t2 45t18.5 46t44.5 17h484h14h330h168h47h22h6h21q61 0 65 -65h-2q0 -25 1 -36t1 -20.5v-20.5v-36q-4 -59 -63 -63q-31 -2 -48.5 -2h-45.5q-51 4 -62 51h-446v-524l248 -2q10 45 59 49q33 2 46 2h46 q63 -4 64 -66q2 -47 2 -79.5v-82.5q-4 -59 -64 -63q-31 -2 -48 -2t-46 2q-49 4 -59 47h-248v-532h442q10 47 62 47q33 2 46 2h46q63 -4 63 -66q0 -25 1 -36t1 -20t-1 -21.5t-1 -37.5q-4 -59 -63 -63q-29 -2 -45.5 -1t-38.5 1h-686q-59 0 -64 63q-2 31 -2 47.5t2 45.5 q4 41 35 57v317h-444l-103 -321q23 -16 23 -51q2 -33 2 -46.5v-45.5q-4 -63 -66 -64q-47 -2 -79.5 -2h-82.5q-59 4 -63 66q-2 31 -2 47zM641 723h381v723h-121z" />
<glyph unicode="&#xc7;" horiz-adv-x="1357" d="M211 850q0 205 38 357.5t104.5 253t158.5 149.5t201 49q78 0 145.5 -26.5t118.5 -71.5t86 -101.5t47 -118.5q23 -6 29 -28q6 -12 6 -29q2 -31 2 -44v-46h-2q0 -61 -62 -61q-47 -2 -77.5 -2.5t-77.5 -0.5q-49 0 -62 44q-4 12 -4 18v27q0 12 -1 29.5t1 35.5q0 37 29 53 q-8 18 -24.5 40t-39 40.5t-51 30.5t-63.5 12q-129 0 -209 -150.5t-82 -463.5q-2 -215 25.5 -345t72.5 -199t99.5 -91.5t105.5 -22.5q45 0 80 19.5t59.5 48.5t39 59.5t20.5 53.5q10 35 37.5 58.5t66.5 23.5q41 0 71.5 -31t28.5 -72q0 -10 -1 -19.5t-3 -19.5q-8 -29 -28.5 -80 t-62.5 -102t-109.5 -91t-169.5 -46l-21 -82h39q84 -4 129 -50t45 -124q0 -98 -68.5 -159.5t-175.5 -61.5q-47 0 -88 11t-73.5 29.5t-51 43t-18.5 53.5t18.5 49t40.5 20q6 0 19 -4q4 -2 18.5 -13t20.5 -15q35 -20 60.5 -29.5t49.5 -11.5q35 0 59.5 21.5t24.5 51.5 q0 29 -20.5 47.5t-52.5 18.5q-18 -4 -43 -6q-14 -4 -23.5 -4t-13.5 -2q-23 0 -39.5 18.5t-16.5 44.5q0 8 2 14l5 18q6 17 12 40.5t13 48.5t11 41q-199 41 -302 253t-103 599z" />
<glyph unicode="&#xc8;" horiz-adv-x="1404" d="M268 110.5v45.5q4 43 37 57v1210q-31 16 -35 60q-2 31 -2 48t2 46t18.5 45t45.5 16h776q63 0 64 -63v-113v-2q0 -59 -64 -63q-31 -2 -48.5 -2t-45.5 2q-51 4 -62 51h-446v-490h248q10 45 61 50q33 2 46.5 2h43.5q63 -4 66 -68q2 -47 2 -80t-2 -80q-4 -59 -64 -63 q-31 -2 -48 -2h-46q-49 4 -59 47h-248v-569h442q10 47 62 47q33 2 46 2h46q63 -4 63 -66q0 -25 1 -36t1 -20v-20.5v-35.5q-4 -59 -65 -64q-29 -2 -45.5 -2h-38.5h-686q-59 0 -64 63q-2 31 -2 47.5zM497 1931q-2 47 25.5 81t64.5 34q16 0 29.5 -7t40.5 -26l158 -110 q39 -29 51 -42.5t14 -35.5l-2 -2q0 -41 -28 -59q-12 -12 -31 -13q-16 0 -58 17l-186 71q-41 16 -59.5 38t-18.5 54z" />
<glyph unicode="&#xc9;" horiz-adv-x="1404" d="M268 110.5v45.5q4 43 37 57v1210q-31 16 -35 60q-2 31 -2 48t2 46t18.5 45t45.5 16h776q63 0 64 -63v-113v-2q0 -59 -64 -63q-31 -2 -48.5 -2t-45.5 2q-51 4 -62 51h-446v-490h248q10 45 61 50q33 2 46.5 2h43.5q63 -4 66 -68q2 -47 2 -80t-2 -80q-4 -59 -64 -63 q-31 -2 -48 -2h-46q-49 4 -59 47h-248v-569h442q10 47 62 47q33 2 46 2h46q63 -4 63 -66q0 -25 1 -36t1 -20v-20.5v-35.5q-4 -59 -65 -64q-29 -2 -45.5 -2h-38.5h-686q-59 0 -64 63q-2 31 -2 47.5zM520 1821q0 25 12 38t51 42l156 108q27 18 40 26.5t27 10.5q39 0 66 -34 t29 -81h-2q0 -33 -18.5 -53t-59.5 -37l-184 -73q-41 -16 -58 -17q-35 0 -55 41q-6 16 -4 29z" />
<glyph unicode="&#xca;" horiz-adv-x="1404" d="M268 110.5v45.5q4 43 37 57v1210q-31 16 -35 60q-2 31 -2 48t2 46t18.5 45t45.5 16h776q63 0 64 -63v-113v-2q0 -59 -64 -63q-31 -2 -48.5 -2t-45.5 2q-51 4 -62 51h-446v-490h248q10 45 61 50q33 2 46.5 2h43.5q63 -4 66 -68q2 -47 2 -80t-2 -80q-4 -59 -64 -63 q-31 -2 -48 -2h-46q-49 4 -59 47h-248v-569h442q10 47 62 47q33 2 46 2h46q63 -4 63 -66q0 -25 1 -36t1 -20v-20.5v-35.5q-4 -59 -65 -64q-29 -2 -45.5 -2h-38.5h-686q-59 0 -64 63q-2 31 -2 47.5zM430 1833q0 23 12.5 39t38.5 34l185 131q18 12 34.5 17.5t28.5 7.5 q16 0 31.5 -6t38.5 -23l178 -131q27 -18 38 -31.5t11 -33.5q0 -29 -16.5 -47.5t-42.5 -14.5q-10 0 -24.5 1t-27.5 5l-186 78l-184 -76q-16 -6 -28.5 -9t-20.5 -5q-29 0 -47.5 18.5t-18.5 45.5z" />
<glyph unicode="&#xcb;" horiz-adv-x="1404" d="M268 110.5v45.5q4 43 37 57v1210q-31 16 -35 60q-2 31 -2 48t2 46t18.5 45t45.5 16h776q63 0 64 -63v-113v-2q0 -59 -64 -63q-31 -2 -48.5 -2t-45.5 2q-51 4 -62 51h-446v-490h248q10 45 61 50q33 2 46.5 2h43.5q63 -4 66 -68q2 -47 2 -80t-2 -80q-4 -59 -64 -63 q-31 -2 -48 -2h-46q-49 4 -59 47h-248v-569h442q10 47 62 47q33 2 46 2h46q63 -4 63 -66q0 -25 1 -36t1 -20v-20.5v-35.5q-4 -59 -65 -64q-29 -2 -45.5 -2h-38.5h-686q-59 0 -64 63q-2 31 -2 47.5zM397 1902q0 55 39 94t96 37q55 0 94.5 -38.5t39.5 -94.5v-2q0 -55 -39 -94 t-97 -37q-55 0 -94 39t-39 96zM780 1904q0 55 39 94t96 37q55 0 94.5 -38.5t39.5 -94.5v-2q0 -55 -39 -94t-97 -37q-55 0 -94 39t-39 96z" />
<glyph unicode="&#xcc;" horiz-adv-x="792" d="M207 1931q-4 47 23.5 81t64.5 34q16 0 29.5 -7t40.5 -26l157 -110q39 -27 51.5 -40.5t14.5 -35.5v-2l-2 -2q0 -41 -29 -60q-12 -12 -31 -12q-16 0 -57 16l-184 72q-41 16 -59.5 37.5t-18.5 54.5zM263 112.5q1 16.5 1 45.5q0 47 41 59v1206q-37 12 -41 60v47t2 45 q0 29 16.5 45t47.5 16q27 2 44 2h33.5h36h48.5q31 0 46 -18t15 -47v2q2 -29 2 -44t-2 -48q0 -51 -41 -64v-1202q41 -14 41 -61q2 -31 2 -44.5t-2 -45.5q-4 -61 -66 -66h-78.5t-78.5 2q-61 0 -66 61q-2 33 -1 49.5z" />
<glyph unicode="&#xcd;" horiz-adv-x="790" d="M205 1825q0 23 12 36t51 42l158 110q27 18 40 25.5t30 7.5q37 0 63.5 -34t26.5 -83v2q0 -31 -18.5 -52t-59.5 -38l-184 -72q-25 -10 -38.5 -13t-21.5 -3q-37 0 -53 41q-6 14 -6 31zM258 112.5q0 16.5 2 45.5q4 49 43 61l-2 1204q-41 14 -41 60q-2 31 -1 47t3 45 q0 57 64 63q27 0 44 1t33.5 1t36 -1t47.5 -1q59 0 64 -63h-2q2 -33 2 -46t-2 -46q0 -51 -41 -64v-1202q41 -14 41 -61q2 -31 2 -44.5t-2 -45.5q-2 -29 -18.5 -47.5t-47.5 -18.5q-47 -2 -79.5 -1t-79.5 3q-59 0 -64 61q-2 33 -2 49.5z" />
<glyph unicode="&#xce;" horiz-adv-x="827" d="M115 1808q0 23 12 39.5t39 34.5l186 129q18 12 34.5 17.5t29.5 5.5q14 2 30.5 -4.5t38.5 -22.5l179 -129q27 -18 38 -31.5t11 -36.5h-2q0 -29 -16.5 -47t-45.5 -18q-10 2 -23.5 5t-25.5 7l-186 76l-185 -74q-16 -6 -27.5 -10t-21.5 -4q-29 0 -47 18.5t-18 44.5z M271 112.5q1 16.5 3 45.5q0 49 41 61v1204q-37 12 -41 60q-2 31 -2 47t2 45q4 57 66 63q27 0 44 1t33.5 1t36 -1t48.5 -1q57 0 61 -63q2 -33 2 -46t-2 -46q-4 -51 -43 -64v-1202q41 -14 41 -61q2 -31 2 -44.5t-2 -45.5q0 -29 -16.5 -47.5t-46.5 -18.5q-47 -2 -80 -1t-80 3 q-59 0 -66 61q-2 33 -1 49.5z" />
<glyph unicode="&#xcf;" horiz-adv-x="833" d="M88 1896q0 55 39 94.5t98 37.5q55 0 94 -39t39 -95l-2 -2q0 -55 -38.5 -94t-96.5 -39q-55 0 -94 39t-39 98zM268 108.5q0 16.5 2 45.5q4 49 43 61l-2 1204q-41 14 -41 60q-2 31 -1 47t3 45q0 57 64 63q27 0 44 1t33.5 1t36 -1t48.5 -1q59 0 63 -63h-2q2 -33 2 -46.5 t-2 -45.5q0 -51 -41 -64v-1202q41 -14 41 -61q2 -31 2 -44.5t-2 -46.5q-2 -29 -18.5 -47t-46.5 -18q-47 -2 -80 -1t-80 3q-59 0 -64 61q-2 33 -2 49.5zM475 1898q0 55 39 94.5t96 37.5q55 0 94 -39t39 -95l-2 -2q0 -55 -38.5 -94t-96.5 -39q-55 0 -94 39t-37 98z" />
<glyph unicode="&#xd1;" horiz-adv-x="1570" d="M269 110.5q-1 16.5 1 45.5q0 45 39 57l2 1212q-37 16 -39 62q-2 29 -2 46t2 46q4 57 66 57q27 2 41 2h27q10 0 25 1t44 -1q27 -2 38 -16t19 -33l533 -1161l-4 995q-43 16 -45 64q-4 29 -4 45t2 45q2 27 18.5 44t46.5 17h158q57 0 61 -63q2 -31 3 -44t-1 -46 q0 -47 -40 -60l-3 -1214q35 -18 35 -55q0 -16 1 -26.5t1 -20t-1 -20.5t-1 -28q0 -29 -15 -45t-48 -16h-144q-25 0 -38 11.5t-23 31.5l-516 1147l2 -977q47 -10 47 -59q2 -31 2 -44.5t-2 -46.5q0 -29 -16.5 -45t-46.5 -16q-47 -2 -79 -3t-81 1q-57 0 -62 63q-2 31 -3 47.5z M453 1823q0 23 9 51.5t25 54.5q25 41 64 66.5t80 25.5q29 0 59.5 -8t91.5 -33q23 -10 40.5 -17t29.5 -13q43 -12 63 -11q35 0 58 21l45 43q18 14 33 14q45 0 51 -53h2h-2q0 -41 -20.5 -82t-49.5 -74q-23 -27 -53.5 -42t-58.5 -15q-49 -2 -166 49q-45 16 -60 25q-27 12 -49 8 q-29 0 -49 -12q-10 -4 -24.5 -17.5t-22.5 -21.5l-10 -10q-18 -12 -33 -13q-20 -2 -35.5 16.5t-17.5 47.5z" />
<glyph unicode="&#xd2;" horiz-adv-x="1507" d="M211 809q0 233 46 396t122 264.5t172 147.5t199 46q104 0 202.5 -47t175 -148.5t122.5 -262.5t46 -388q0 -215 -43 -372.5t-116.5 -261t-172 -153.5t-208.5 -50q-106 0 -204.5 51t-174.5 154.5t-121 259t-45 364.5zM428 811q0 -184 27.5 -306t73.5 -194.5t104.5 -103.5 t120.5 -31q63 0 121.5 32t103.5 105.5t70.5 196.5t25.5 305v-2q0 332 -89 493.5t-238 161.5q-61 0 -119 -34.5t-103 -112.5t-71.5 -204t-26.5 -306zM542 1947q-2 47 25.5 81t64.5 34q16 0 29.5 -7t40.5 -26l158 -110q39 -29 51 -42.5t14 -35.5l-2 -2q0 -41 -28 -59 q-12 -12 -31 -13q-16 0 -58 17l-186 71q-41 16 -59.5 38t-18.5 54z" />
<glyph unicode="&#xd3;" horiz-adv-x="1507" d="M211 809q0 233 46 396t122 264.5t172 147.5t199 46q104 0 202.5 -47t175 -148.5t122.5 -262.5t46 -388q0 -215 -43 -372.5t-116.5 -261t-172 -153.5t-208.5 -50q-106 0 -204.5 51t-174.5 154.5t-121 259t-45 364.5zM428 811q0 -184 27.5 -306t73.5 -194.5t104.5 -103.5 t120.5 -31q63 0 121.5 32t103.5 105.5t70.5 196.5t25.5 305v-2q0 332 -89 493.5t-238 161.5q-61 0 -119 -34.5t-103 -112.5t-71.5 -204t-26.5 -306zM553 1827q0 25 12 38t51 42l156 108q27 18 40 26.5t27 10.5q39 0 66 -34t29 -81h-2q0 -33 -18.5 -53t-59.5 -37l-184 -73 q-41 -16 -58 -17q-35 0 -55 41q-6 16 -4 29z" />
<glyph unicode="&#xd4;" horiz-adv-x="1536" d="M211 809q0 233 46 396t122 264.5t172 147.5t199 46q104 0 202.5 -47t175 -148.5t122.5 -262.5t46 -388q0 -215 -43 -372.5t-116.5 -261t-172 -153.5t-208.5 -50q-106 0 -204.5 51t-174.5 154.5t-121 259t-45 364.5zM428 811q0 -184 27.5 -306t73.5 -194.5t104.5 -103.5 t120.5 -31q63 0 121.5 32t103.5 105.5t70.5 196.5t25.5 305v-2q0 332 -89 493.5t-238 161.5q-61 0 -119 -34.5t-103 -112.5t-71.5 -204t-26.5 -306zM440 1827q0 23 12.5 39t38.5 34l185 131q18 12 34.5 17.5t28.5 7.5q16 0 31.5 -6t38.5 -23l178 -131q27 -18 38 -31.5 t11 -33.5q0 -29 -16.5 -47.5t-42.5 -14.5q-10 0 -24.5 1t-27.5 5l-186 78l-184 -76q-16 -6 -28.5 -9t-20.5 -5q-29 0 -47.5 18.5t-18.5 45.5z" />
<glyph unicode="&#xd5;" horiz-adv-x="1507" d="M197 809q0 233 46 396t121.5 264.5t172 147.5t198.5 46q104 0 202.5 -47t175.5 -148.5t123 -262.5t46 -388q0 -215 -43 -372.5t-116.5 -261t-172 -153.5t-209.5 -50q-106 0 -204.5 51t-174 154.5t-120.5 259t-45 364.5zM401 1849q4 45 37 103q23 41 62 65.5t80 24.5 q29 0 59.5 -8.5t91.5 -32.5q23 -10 40 -16.5t30 -12.5q43 -12 63 -10q35 0 58 20l45 41q12 16 30 17q47 -4 54 -53h2h-2q0 -39 -20.5 -79t-49.5 -71q-25 -29 -55.5 -44t-59.5 -15q-51 0 -164 47q-20 10 -34.5 17t-24.5 11q-29 8 -49 7q-29 0 -49 -13q-8 -4 -22.5 -16 t-22.5 -21l-13 -10q-16 -12 -30 -12q-23 -2 -38.5 15.5t-17.5 45.5zM414 811q0 -184 27.5 -306t73.5 -194.5t104.5 -102.5t119.5 -30q63 0 122 32t104 105.5t70.5 195.5t25.5 304v-2q0 332 -89 493.5t-239 161.5q-61 0 -118.5 -34.5t-102.5 -112.5t-71.5 -204t-26.5 -306z " />
<glyph unicode="&#xd6;" horiz-adv-x="1507" d="M211 809q0 233 46 396t122 264.5t172 147.5t199 46q104 0 202.5 -47t175 -148.5t122.5 -262.5t46 -388q0 -215 -43 -372.5t-116.5 -261t-172 -153.5t-208.5 -50q-106 0 -204.5 51t-174.5 154.5t-121 259t-45 364.5zM411 1896q0 55 39 94t96 37q55 0 94.5 -38.5 t39.5 -94.5v-2q0 -55 -39 -94t-97 -37q-55 0 -94 39t-39 96zM428 811q0 -184 27.5 -306t73.5 -194.5t104.5 -103.5t120.5 -31q63 0 121.5 32t103.5 105.5t70.5 196.5t25.5 305v-2q0 332 -89 493.5t-238 161.5q-61 0 -119 -34.5t-103 -112.5t-71.5 -204t-26.5 -306zM794 1898 q0 55 39 94t96 37q55 0 94.5 -38.5t39.5 -94.5v-2q0 -55 -39 -94t-97 -37q-55 0 -94 39t-39 96z" />
<glyph unicode="&#xd9;" horiz-adv-x="1382" d="M229 1528q0 16 2 45q4 63 68 65h164q59 0 63 -63q2 -33 2 -47.5t-2 -44.5q-4 -51 -43 -64v-950q0 -86 13.5 -142.5t40 -89t67.5 -45t94 -12.5q104 0 152.5 63.5t48.5 221.5v69.5v134.5v176v197.5v198.5v178q-20 6 -35.5 21.5t-15.5 38.5q-2 33 -2 49t2 45t22.5 46 t51.5 17q27 0 45 1t35.5 1h37h47.5q29 0 46.5 -17t17.5 -46q2 -33 2 -47.5t-2 -44.5q0 -47 -43 -64v-956q0 -143 -30.5 -236.5t-85 -147.5t-130.5 -75.5t-166 -21.5q-92 0 -169.5 20.5t-134 73.5t-87.5 148t-31 247v950q-39 12 -43 58q-2 33 -2 49zM477 1919q-2 47 25.5 81 t64.5 34q16 0 29.5 -7t40.5 -26l158 -110q39 -29 51 -42.5t14 -35.5l-2 -2q0 -41 -28 -59q-12 -12 -31 -13q-16 0 -58 17l-186 71q-41 16 -59.5 38t-18.5 54z" />
<glyph unicode="&#xda;" horiz-adv-x="1382" d="M229 1528q0 16 2 45q4 63 68 65h164q59 0 63 -63q2 -33 2 -47.5t-2 -44.5q-4 -51 -43 -64v-950q0 -86 13.5 -142.5t40 -89t67.5 -45t94 -12.5q104 0 152.5 63.5t48.5 221.5v69.5v134.5v176v197.5v198.5v178q-20 6 -35.5 21.5t-15.5 38.5q-2 33 -2 49t2 45t22.5 46 t51.5 17q27 0 45 1t35.5 1h37h47.5q29 0 46.5 -17t17.5 -46q2 -33 2 -47.5t-2 -44.5q0 -47 -43 -64v-956q0 -143 -30.5 -236.5t-85 -147.5t-130.5 -75.5t-166 -21.5q-92 0 -169.5 20.5t-134 73.5t-87.5 148t-31 247v950q-39 12 -43 58q-2 33 -2 49zM502 1815q0 25 12 38 t51 42l156 108q27 18 40 26.5t27 10.5q39 0 66 -34t29 -81h-2q0 -33 -18.5 -53t-59.5 -37l-184 -73q-41 -16 -58 -17q-35 0 -55 41q-6 16 -4 29z" />
<glyph unicode="&#xdb;" horiz-adv-x="1382" d="M229 1528q0 16 2 45q4 63 68 65h164q59 0 63 -63q2 -33 2 -47.5t-2 -44.5q-4 -51 -43 -64v-950q0 -86 13.5 -142.5t40 -89t67.5 -45t94 -12.5q104 0 152.5 63.5t48.5 221.5v69.5v134.5v176v197.5v198.5v178q-20 6 -35.5 21.5t-15.5 38.5q-2 33 -2 49t2 45t22.5 46 t51.5 17q27 0 45 1t35.5 1h37h47.5q29 0 46.5 -17t17.5 -46q2 -33 2 -47.5t-2 -44.5q0 -47 -43 -64v-956q0 -143 -30.5 -236.5t-85 -147.5t-130.5 -75.5t-166 -21.5q-92 0 -169.5 20.5t-134 73.5t-87.5 148t-31 247v950q-39 12 -43 58q-2 33 -2 49zM397 1827q0 23 12.5 39 t38.5 34l185 131q18 12 34.5 17.5t28.5 7.5q16 0 31.5 -6t38.5 -23l178 -131q27 -18 38 -31.5t11 -33.5q0 -29 -16.5 -47.5t-42.5 -14.5q-10 0 -24.5 1t-27.5 5l-186 78l-184 -76q-16 -6 -28.5 -9t-20.5 -5q-29 0 -47.5 18.5t-18.5 45.5z" />
<glyph unicode="&#xdc;" horiz-adv-x="1382" d="M229 1528q0 16 2 45q4 63 68 65h164q59 0 63 -63q2 -33 2 -47.5t-2 -44.5q-4 -51 -43 -64v-950q0 -86 13.5 -142.5t40 -89t67.5 -45t94 -12.5q104 0 152.5 63.5t48.5 221.5v69.5v134.5v176v197.5v198.5v178q-20 6 -35.5 21.5t-15.5 38.5q-2 33 -2 49t2 45t22.5 46 t51.5 17q27 0 45 1t35.5 1h37h47.5q29 0 46.5 -17t17.5 -46q2 -33 2 -47.5t-2 -44.5q0 -47 -43 -64v-956q0 -143 -30.5 -236.5t-85 -147.5t-130.5 -75.5t-166 -21.5q-92 0 -169.5 20.5t-134 73.5t-87.5 148t-31 247v950q-39 12 -43 58q-2 33 -2 49zM352 1896q0 55 39 94 t96 37q55 0 94.5 -38.5t39.5 -94.5v-2q0 -55 -39 -94t-97 -37q-55 0 -94 39t-39 96zM735 1898q0 55 39 94t96 37q55 0 94.5 -38.5t39.5 -94.5v-2q0 -55 -39 -94t-97 -37q-55 0 -94 39t-39 96z" />
<glyph unicode="&#xdf;" horiz-adv-x="1544" d="M190.5 1086.5q-0.5 17.5 2.5 46.5q2 29 18 46t45 17h115v21q0 86 27.5 159.5t79.5 128t128 85t174 30.5q88 0 161 -27.5t124 -78t77.5 -119t26.5 -148.5q0 -72 -33.5 -152.5t-107.5 -148.5l-14 -14q-6 -6 -15.5 -14.5t-17.5 -16.5q18 -10 33.5 -18.5t32.5 -18.5l10 -6 q8 -4 8 -6l16 -10q59 -35 122 -89.5t97 -121.5q23 -45 37.5 -101.5t14.5 -119.5q0 -90 -27 -169t-72 -136.5t-104 -90t-125 -32.5q-39 0 -83 12t-73 33q-18 -27 -53 -27q-31 -2 -48 -2t-46 2q-59 4 -64 63v45.5v35t1 36t1 47.5q2 29 17.5 45.5t44.5 16.5q16 0 26.5 1t19.5 1 t20.5 -1t27.5 -3q57 0 66 -58q18 -29 47.5 -41t58.5 -12q156 4 156 221q0 61 -15.5 109.5t-45 88.5t-74.5 72.5t-105 65.5q-66 35 -101.5 55.5t-52 35t-20.5 24.5t-4 22q0 37 29.5 70t54.5 55q27 25 61 56q41 37 67 90t26 104q-2 80 -48.5 130t-140.5 50q-96 -2 -147.5 -61 t-51.5 -203v-866v-139v-93q0 -29 -17 -46t-50 -15q-47 -2 -77 -3t-79 1q-59 4 -63 63q-2 31 -2 48.5t2 46.5q2 35 23.5 49t56.5 14v752h-53.5t-59.5 2q-59 4 -63 63q-2 31 -2.5 48.5z" />
<glyph unicode="&#xe0;" horiz-adv-x="1251" d="M211 340q0 82 31.5 145.5t80 108.5t102.5 72.5t97 40.5q35 10 68 17t61 11q29 4 56.5 4h60.5v158h2q0 4 -4 16q-2 10 -5 21.5t-9 26.5q-12 23 -41 42t-82 19q-74 0 -137 -49v-41.5t-3 -46.5q0 -63 -63 -68q-33 -2 -50.5 -2t-47.5 2q-57 0 -62 68v69v30.5t2 47.5 q0 27 16.5 43.5t45.5 18.5q8 0 16 -2q6 8 26.5 27.5t43.5 33.5q61 35 120.5 49.5t115 11t105.5 -20.5t93 -44q117 -70 125 -197q2 -16 2 -31.5v-31.5v-674q43 -16 43 -59q0 -16 1 -26.5t1 -20t-1 -18.5t-3 -25q0 -66 -64 -66h-139q-18 0 -29.5 9t-15.5 22.5t-5 29t-1 29.5v6 q0 4 -4 13q-47 -59 -107.5 -89t-146.5 -28q-76 0 -131.5 26.5t-92 73.5t-54 110.5t-17.5 137.5zM422 334q0 -47 14.5 -76t36 -45t45 -21.5t41.5 -5.5q49 -2 110.5 21.5t98.5 75.5v266h-47.5t-42.5 -4q-27 -4 -56.5 -10.5t-64.5 -20.5q-53 -23 -94 -70t-41 -110zM424 1491 q-2 47 25.5 81t64.5 34q16 0 29.5 -7t40.5 -26l158 -110q39 -29 51 -42.5t14 -35.5l-2 -2q0 -41 -28 -59q-12 -12 -31 -13q-16 0 -58 17l-186 71q-41 16 -59.5 38t-18.5 54z" />
<glyph unicode="&#xe1;" horiz-adv-x="1251" d="M211 340q0 82 31.5 145.5t80 108.5t102.5 72.5t97 40.5q35 10 68 17t61 11q29 4 56.5 4h60.5v158h2q0 4 -4 16q-2 10 -5 21.5t-9 26.5q-12 23 -41 42t-82 19q-74 0 -137 -49v-41.5t-3 -46.5q0 -63 -63 -68q-33 -2 -50.5 -2t-47.5 2q-57 0 -62 68v69v30.5t2 47.5 q0 27 16.5 43.5t45.5 18.5q8 0 16 -2q6 8 26.5 27.5t43.5 33.5q61 35 120.5 49.5t115 11t105.5 -20.5t93 -44q117 -70 125 -197q2 -16 2 -31.5v-31.5v-674q43 -16 43 -59q0 -16 1 -26.5t1 -20t-1 -18.5t-3 -25q0 -66 -64 -66h-139q-18 0 -29.5 9t-15.5 22.5t-5 29t-1 29.5v6 q0 4 -4 13q-47 -59 -107.5 -89t-146.5 -28q-76 0 -131.5 26.5t-92 73.5t-54 110.5t-17.5 137.5zM422 334q0 -47 14.5 -76t36 -45t45 -21.5t41.5 -5.5q49 -2 110.5 21.5t98.5 75.5v266h-47.5t-42.5 -4q-27 -4 -56.5 -10.5t-64.5 -20.5q-53 -23 -94 -70t-41 -110zM424 1381 q0 25 12 38t51 42l156 108q27 18 40 26.5t27 10.5q39 0 66 -34t29 -81h-2q0 -33 -18.5 -53t-59.5 -37l-184 -73q-41 -16 -58 -17q-35 0 -55 41q-6 16 -4 29z" />
<glyph unicode="&#xe2;" horiz-adv-x="1251" d="M211 340q0 82 31.5 145.5t80 108.5t102.5 72.5t97 40.5q35 10 68 17t61 11q29 4 56.5 4h60.5v158h2q0 4 -4 16q-2 10 -5 21.5t-9 26.5q-12 23 -41 42t-82 19q-74 0 -137 -49v-41.5t-3 -46.5q0 -63 -63 -68q-33 -2 -50.5 -2t-47.5 2q-57 0 -62 68v69v30.5t2 47.5 q0 27 16.5 43.5t45.5 18.5q8 0 16 -2q6 8 26.5 27.5t43.5 33.5q61 35 120.5 49.5t115 11t105.5 -20.5t93 -44q117 -70 125 -197q2 -16 2 -31.5v-31.5v-674q43 -16 43 -59q0 -16 1 -26.5t1 -20t-1 -18.5t-3 -25q0 -66 -64 -66h-139q-18 0 -29.5 9t-15.5 22.5t-5 29t-1 29.5v6 q0 4 -4 13q-47 -59 -107.5 -89t-146.5 -28q-76 0 -131.5 26.5t-92 73.5t-54 110.5t-17.5 137.5zM322 1381q0 23 12.5 39t38.5 34l185 131q18 12 34.5 17.5t28.5 7.5q16 0 31.5 -6t38.5 -23l178 -131q27 -18 38 -31.5t11 -33.5q0 -29 -16.5 -47.5t-42.5 -14.5q-10 0 -24.5 1 t-27.5 5l-186 78l-184 -76q-16 -6 -28.5 -9t-20.5 -5q-29 0 -47.5 18.5t-18.5 45.5zM422 334q0 -47 14.5 -76t36 -45t45 -21.5t41.5 -5.5q49 -2 110.5 21.5t98.5 75.5v266h-47.5t-42.5 -4q-27 -4 -56.5 -10.5t-64.5 -20.5q-53 -23 -94 -70t-41 -110z" />
<glyph unicode="&#xe3;" horiz-adv-x="1251" d="M211 340q0 82 31.5 145.5t80 108.5t102.5 72.5t97 40.5q35 10 68 17t61 11q29 4 56.5 4h60.5v158h2q0 4 -4 16q-2 10 -5 21.5t-9 26.5q-12 23 -41 42t-82 19q-74 0 -137 -49v-41.5t-3 -46.5q0 -63 -63 -68q-33 -2 -50.5 -2t-47.5 2q-57 0 -62 68v69v30.5t2 47.5 q0 27 16.5 43.5t45.5 18.5q8 0 16 -2q6 8 26.5 27.5t43.5 33.5q61 35 120.5 49.5t115 11t105.5 -20.5t93 -44q117 -70 125 -197q2 -16 2 -31.5v-31.5v-674q43 -16 43 -59q0 -16 1 -26.5t1 -20t-1 -18.5t-3 -25q0 -66 -64 -66h-139q-18 0 -29.5 9t-15.5 22.5t-5 29t-1 29.5v6 q0 4 -4 13q-47 -59 -107.5 -89t-146.5 -28q-76 0 -131.5 26.5t-92 73.5t-54 110.5t-17.5 137.5zM290 1401q0 20 9.5 48t25.5 55q23 41 62 65.5t79 24.5q29 0 60 -8.5t92 -32.5q23 -10 40 -16.5t30 -12.5q43 -12 63 -10q35 0 58 20l43 41q18 14 32 15q45 0 56 -52h-2 q0 -41 -19.5 -80.5t-48.5 -70.5q-25 -27 -55.5 -42t-59.5 -15q-27 0 -66.5 11t-99.5 38q-20 10 -35.5 16t-25.5 10q-25 10 -45 6q-27 0 -51 -12q-10 -4 -24.5 -16.5t-22.5 -20.5l-11 -10q-16 -14 -30 -14q-20 0 -36 17.5t-18 45.5zM422 334q0 -47 14.5 -76t36 -45t45 -21.5 t41.5 -5.5q49 -2 110.5 21.5t98.5 75.5v266h-47.5t-42.5 -4q-27 -4 -56.5 -10.5t-64.5 -20.5q-53 -23 -94 -70t-41 -110z" />
<glyph unicode="&#xe4;" horiz-adv-x="1251" d="M211 340q0 82 31.5 145.5t80 108.5t102.5 72.5t97 40.5q35 10 68 17t61 11q29 4 56.5 4h60.5v158h2q0 4 -4 16q-2 10 -5 21.5t-9 26.5q-12 23 -41 42t-82 19q-74 0 -137 -49v-41.5t-3 -46.5q0 -63 -63 -68q-33 -2 -50.5 -2t-47.5 2q-57 0 -62 68v69v30.5t2 47.5 q0 27 16.5 43.5t45.5 18.5q8 0 16 -2q6 8 26.5 27.5t43.5 33.5q61 35 120.5 49.5t115 11t105.5 -20.5t93 -44q117 -70 125 -197q2 -16 2 -31.5v-31.5v-674q43 -16 43 -59q0 -16 1 -26.5t1 -20t-1 -18.5t-3 -25q0 -66 -64 -66h-139q-18 0 -29.5 9t-15.5 22.5t-5 29t-1 29.5v6 q0 4 -4 13q-47 -59 -107.5 -89t-146.5 -28q-76 0 -131.5 26.5t-92 73.5t-54 110.5t-17.5 137.5zM303 1452q0 55 39 94t96 37q55 0 94.5 -38.5t39.5 -94.5v-2q0 -55 -39 -94t-97 -37q-55 0 -94 39t-39 96zM422 334q0 -47 14.5 -76t36 -45t45 -21.5t41.5 -5.5 q49 -2 110.5 21.5t98.5 75.5v266h-47.5t-42.5 -4q-27 -4 -56.5 -10.5t-64.5 -20.5q-53 -23 -94 -70t-41 -110zM686 1454q0 55 39 94t96 37q55 0 94.5 -38.5t39.5 -94.5v-2q0 -55 -39 -94t-97 -37q-55 0 -94 39t-39 96z" />
<glyph unicode="&#xe5;" horiz-adv-x="1249" d="M213 340q0 82 30.5 145.5t78 109.5t101.5 74.5t99 41.5q72 20 130.5 23t111.5 7v154q-2 35 -16 61q-12 23 -41 41.5t-80 18.5q-72 0 -135 -45v-39t-3 -49q0 -63 -65 -68q-31 -2 -48.5 -2t-45.5 2q-59 4 -66 68q0 27 -1 42t-1 28.5t1 29.5t1 47q0 29 18.5 45.5t47.5 18.5 h12q10 12 20 22t22.5 18.5t27.5 16.5q61 37 120.5 51.5t116 12t107.5 -19.5t94 -44q49 -31 75.5 -66.5t37 -70.5t11.5 -67t1 -58v-670q39 -12 43 -61h-2q0 -16 1 -26.5t1 -20t-1 -19.5t-1 -26q0 -63 -66 -64q-23 0 -39 -1t-31.5 -1h-33h-41.5q-31 0 -41 22.5t-12 53.5 q-2 10 -2 15v13q-8 -16 -30 -36.5t-53.5 -37t-72.5 -27.5t-86 -11q-78 0 -133.5 27.5t-92 74.5t-53 110.5t-16.5 135.5zM422 338q0 -49 14.5 -79t36 -46t46 -21.5t44.5 -5.5q49 0 108.5 23.5t94.5 75.5l-2 268q-39 -2 -88 -5t-119 -32q-53 -23 -94 -70t-41 -108zM426 1526 q0 90 56.5 146.5t142.5 56.5t140 -55.5t54 -141.5q0 -90 -55 -147.5t-141 -57.5t-141.5 55.5t-55.5 143.5zM549 1524q2 -37 22.5 -60.5t49.5 -23.5q33 0 53 24.5t20 61.5v4q0 39 -19.5 62.5t-53.5 23.5q-29 0 -50.5 -23.5t-21.5 -64.5v-2v-2z" />
<glyph unicode="&#xe6;" horiz-adv-x="1769" d="M211 328q0 82 31.5 144.5t79 107.5t101.5 73.5t97 40.5q66 20 131 27q31 4 59.5 5t59.5 3l2 162q-2 35 -18 63q-14 25 -44 44.5t-83 19.5q-78 0 -142 -49v-42.5t-4 -47.5q0 -59 -57 -64q-33 -2 -50.5 -2t-47.5 2q-55 0 -60 64v69v30.5t2 49.5q0 25 15.5 40t44.5 15 q8 0 14 2q10 12 23 23q18 18 49 39q123 70 234.5 58.5t199.5 -66.5q31 -18 55 -43q53 53 117.5 81.5t142.5 28.5q98 0 170 -32.5t123 -90t80 -131t41 -155.5q2 -20 6 -53t4 -67t-3 -63.5t-15 -46.5v-2q-14 -16 -31.5 -21t-40.5 -5h-33h-514q0 -78 13.5 -144.5t42 -116 t71.5 -77t103 -27.5q29 0 55 4q23 4 46.5 8t35.5 15l-2 75q0 25 16.5 40.5t44.5 15.5q16 0 27.5 1t21 1h19.5h26q59 0 64 -60v-40v-28v-28.5v-40.5q0 -16 -6 -26.5t-17 -20.5l-2 -2q-33 -39 -67.5 -60.5t-73.5 -31.5t-81 -12t-87 -2q-117 0 -197.5 39.5t-136.5 109.5 q-72 -74 -149.5 -110.5t-190.5 -36.5q-82 0 -141 26.5t-98 72.5t-57.5 109.5t-18.5 135.5zM418 319q0 -49 15.5 -78.5t37 -46t46 -21.5t44.5 -5q49 0 109.5 24.5t95.5 77.5v273h-46.5t-43.5 -4q-27 -4 -55.5 -10.5t-63.5 -20.5q-55 -23 -97 -72t-42 -117zM952 731l424 -2 q0 47 -11 97.5t-35.5 92.5t-66 68.5t-100.5 26.5q-66 0 -106.5 -28t-64 -68.5t-32 -91t-8.5 -95.5z" />
<glyph unicode="&#xe7;" horiz-adv-x="1214" d="M193 580q0 127 27.5 237.5t82.5 191.5t138 128t194 47q100 0 163.5 -29t102.5 -66.5t55.5 -75.5t20.5 -55q25 -10 37 -30q6 -12 6 -31l2 2v-88q0 -59 -59 -66q-47 -2 -78 -1t-78 1t-59 37q-4 12 -5 21q-2 31 -2 47t2 43q0 35 19 47q-29 33 -60.5 42t-60.5 11 q-63 0 -108.5 -29.5t-74 -83t-42 -126t-13.5 -160.5q0 -197 60.5 -308.5t189.5 -111.5q33 0 75 13.5t81 64.5q27 35 49.5 48t52.5 13q41 0 70 -27.5t31 -68.5q0 -39 -21 -65q-8 -10 -19 -28t-40 -42q-12 -12 -38 -28.5t-59.5 -32t-77.5 -26.5t-93 -11l-23 -74q18 0 27 2 q74 -4 115.5 -43t41.5 -111q-2 -80 -58 -130t-146 -50q-80 0 -140.5 34t-62.5 85q0 23 15.5 36t37.5 13q18 0 41 -16q10 -4 24.5 -14.5t20.5 -12.5q20 -12 51 -16q39 0 54.5 20.5t15.5 44.5q0 29 -19.5 47.5t-54.5 20.5q-8 0 -19.5 -1t-15.5 -3q-4 0 -14 -5.5t-10 -7.5 q-4 -2 -10 -2h-7q-45 0 -45 35q0 10 8.5 29.5t16.5 44.5l29 86q-164 41 -254 188.5t-90 395.5z" />
<glyph unicode="&#xe8;" horiz-adv-x="1241" d="M193 612q0 121 26.5 228.5t79.5 187.5t134 127t190 47q115 0 195.5 -48t131.5 -125t74 -174t23 -198q0 -43 -3.5 -66.5t-13.5 -34.5t-29.5 -14t-54.5 -3h-547q0 -164 63.5 -264.5t188.5 -100.5q33 0 62.5 4t70.5 21v29.5t2 45.5q0 55 60 60q33 2 48 2t50 -2q59 -4 60 -60 v-137q0 -18 -5.5 -28.5t-21.5 -22.5q-37 -33 -79 -53.5t-84 -31.5t-83 -16t-76 -5q-127 0 -215 47t-143 132t-79.5 200.5t-24.5 252.5zM403 733h431v8l-3 -2q0 45 -11 94.5t-35.5 89.5t-65.5 66.5t-101 26.5q-63 0 -104 -27.5t-65.5 -68.5t-35 -91.5t-10.5 -95.5zM403 1499 q-2 47 25.5 81t64.5 34q16 0 29.5 -7t40.5 -26l158 -110q39 -29 51 -42.5t14 -35.5l-2 -2q0 -41 -28 -59q-12 -12 -31 -13q-16 0 -58 17l-186 71q-41 16 -59.5 38t-18.5 54z" />
<glyph unicode="&#xe9;" horiz-adv-x="1241" d="M193 612q0 121 26.5 228.5t79.5 187.5t134 127t190 47q115 0 195.5 -48t131.5 -125t74 -174t23 -198q0 -43 -3.5 -66.5t-13.5 -34.5t-29.5 -14t-54.5 -3h-547q0 -164 63.5 -264.5t188.5 -100.5q33 0 62.5 4t70.5 21v29.5t2 45.5q0 55 60 60q33 2 48 2t50 -2q59 -4 60 -60 v-137q0 -18 -5.5 -28.5t-21.5 -22.5q-37 -33 -79 -53.5t-84 -31.5t-83 -16t-76 -5q-127 0 -215 47t-143 132t-79.5 200.5t-24.5 252.5zM403 733h431v8l-3 -2q0 45 -11 94.5t-35.5 89.5t-65.5 66.5t-101 26.5q-63 0 -104 -27.5t-65.5 -68.5t-35 -91.5t-10.5 -95.5zM424 1379 q0 25 12 38t51 42l156 108q27 18 40 26.5t27 10.5q39 0 66 -34t29 -81h-2q0 -33 -18.5 -53t-59.5 -37l-184 -73q-41 -16 -58 -17q-35 0 -55 41q-6 16 -4 29z" />
<glyph unicode="&#xea;" horiz-adv-x="1241" d="M193 612q0 121 26.5 228.5t79.5 187.5t134 127t190 47q115 0 195.5 -48t131.5 -125t74 -174t23 -198q0 -43 -3.5 -66.5t-13.5 -34.5t-29.5 -14t-54.5 -3h-547q0 -164 63.5 -264.5t188.5 -100.5q33 0 62.5 4t70.5 21v29.5t2 45.5q0 55 60 60q33 2 48 2t50 -2q59 -4 60 -60 v-137q0 -18 -5.5 -28.5t-21.5 -22.5q-37 -33 -79 -53.5t-84 -31.5t-83 -16t-76 -5q-127 0 -215 47t-143 132t-79.5 200.5t-24.5 252.5zM328 1371q0 23 12.5 39t38.5 34l185 131q18 12 34.5 17.5t28.5 7.5q16 0 31.5 -6t38.5 -23l178 -131q27 -18 38 -31.5t11 -33.5 q0 -29 -16.5 -47.5t-42.5 -14.5q-10 0 -24.5 1t-27.5 5l-186 78l-184 -76q-16 -6 -28.5 -9t-20.5 -5q-29 0 -47.5 18.5t-18.5 45.5zM403 733h431v8l-3 -2q0 45 -11 94.5t-35.5 89.5t-65.5 66.5t-101 26.5q-63 0 -104 -27.5t-65.5 -68.5t-35 -91.5t-10.5 -95.5z" />
<glyph unicode="&#xeb;" horiz-adv-x="1241" d="M193 612q0 121 26.5 228.5t79.5 187.5t134 127t190 47q115 0 195.5 -48t131.5 -125t74 -174t23 -198q0 -43 -3.5 -66.5t-13.5 -34.5t-29.5 -14t-54.5 -3h-547q0 -164 63.5 -264.5t188.5 -100.5q33 0 62.5 4t70.5 21v29.5t2 45.5q0 55 60 60q33 2 48 2t50 -2q59 -4 60 -60 v-137q0 -18 -5.5 -28.5t-21.5 -22.5q-37 -33 -79 -53.5t-84 -31.5t-83 -16t-76 -5q-127 0 -215 47t-143 132t-79.5 200.5t-24.5 252.5zM288 1458q0 55 39 94t96 37q55 0 94.5 -38.5t39.5 -94.5v-2q0 -55 -39 -94t-97 -37q-55 0 -94 39t-39 96zM403 733h431v8l-3 -2 q0 45 -11 94.5t-35.5 89.5t-65.5 66.5t-101 26.5q-63 0 -104 -27.5t-65.5 -68.5t-35 -91.5t-10.5 -95.5zM671 1460q0 55 39 94t96 37q55 0 94.5 -38.5t39.5 -94.5v-2q0 -55 -39 -94t-97 -37q-55 0 -94 39t-39 96z" />
<glyph unicode="&#xec;" horiz-adv-x="806" d="M193 1489q0 47 26.5 81t63.5 34q16 0 28.5 -8.5t38.5 -26.5l158 -111q39 -29 51 -42t12 -38l2 2q0 -39 -30 -59q-12 -14 -31 -14q-6 2 -20.5 5t-36.5 13l-185 74q-41 16 -59 36.5t-18 53.5zM264 111.5q0 17.5 2 46.5q4 45 43 57v754q-39 12 -43 59q-2 31 -2 47.5t2 44.5 q4 59 64 64h69h29.5t44.5 -2q29 0 45.5 -16.5t18.5 -45.5q2 -33 2 -46t-2 -46q0 -33 -25 -51l-2 -764q41 -12 45 -57q2 -33 2 -46.5t-2 -46.5q-4 -61 -61 -61q-49 -2 -82 -2t-82 2q-59 0 -64 61q-2 31 -2 48.5z" />
<glyph unicode="&#xed;" horiz-adv-x="788" d="M193 1391q0 23 12 36t51 41l158 111q27 18 40 25.5t29 7.5q37 0 63.5 -34t26.5 -83v2q0 -31 -18 -52.5t-59 -37.5l-185 -72q-41 -16 -57 -16q-37 0 -53 41q-8 14 -8 31zM258 111.5q0 17.5 2 46.5q4 45 43 57v754q-39 12 -43 59q-2 31 -2 47.5t2 44.5q4 59 64 64h69h29.5 t44.5 -2q29 0 45 -16.5t18 -45.5q2 -33 2 -46t-2 -46q0 -33 -24 -51l-2 -764q41 -12 45 -57q2 -33 2 -46.5t-2 -46.5q-4 -61 -62 -61q-49 -2 -81.5 -2t-81.5 2q-59 0 -64 61q-2 31 -2 48.5z" />
<glyph unicode="&#xee;" horiz-adv-x="794" d="M98 1376q0 35 54 72l184 131q18 12 34.5 17.5t28.5 5.5q14 0 30.5 -6.5t39.5 -22.5l178 -129q27 -18 38 -31.5t11 -36.5q0 -29 -16 -46t-45 -17q-25 0 -51 10l-185 78l-184 -76q-35 -12 -51 -12q-29 0 -48.5 18.5t-17.5 44.5zM260 111.5q0 17.5 2 46.5q4 45 43 57v754 q-39 12 -43 59q-2 31 -2 47.5t2 44.5q4 59 64 64h69h29.5t44.5 -2q29 0 45 -16.5t18 -45.5q2 -33 2.5 -46t-2.5 -46q0 -33 -24 -51l-2 -764q41 -12 45 -57q2 -33 2 -46.5t-2 -46.5q-4 -61 -62 -61q-49 -2 -81.5 -2t-81.5 2q-59 0 -64 61q-2 31 -2 48.5z" />
<glyph unicode="&#xef;" horiz-adv-x="833" d="M88 1464q0 55 39 94t98 37q55 0 94 -38.5t39 -94.5l-2 -2q0 -55 -38.5 -94t-96.5 -39q-55 0 -94 39t-39 98zM270 107.5q0 17.5 2 46.5q4 45 43 57v754q-39 12 -43 59q-2 31 -2 47t2 45q4 59 64 64h70h29.5t43.5 -2q29 0 45.5 -16.5t18.5 -45.5q2 -33 2 -46t-2 -46 q0 -33 -25 -51l-2 -764q41 -12 45 -57h-2q2 -33 2 -46.5v-46.5q-4 -61 -63 -61q-49 -2 -82 -2t-80 2q-59 0 -64 61q-2 31 -2 48.5zM475 1466q0 55 39 94t96 37q55 0 94 -38.5t39 -94.5l-2 -2q0 -55 -38.5 -94t-96.5 -39q-55 0 -94 39t-37 98z" />
<glyph unicode="&#xf1;" horiz-adv-x="1347" d="M248 113q0 16 2 45q4 49 45 61v746q-43 12 -45 61q-2 31 -2 47.5t2 44.5q4 59 63 64h64h22.5t40.5 -2q59 0 64 -64v-43q37 43 103.5 78t144.5 35q61 0 119.5 -17.5t102.5 -64.5t71.5 -129t27.5 -209v-547q43 -12 43 -61q0 -16 1 -26.5t1 -20t-1 -20.5t-1 -28 q-4 -61 -61 -61q-49 -2 -82 -2t-82 2q-59 0 -64 64q-2 31 -2 48v46q4 45 43 57v531q0 139 -44 191t-122 52q-39 0 -74.5 -15t-64 -46t-46 -78t-17.5 -111v-526q39 -12 39 -57q0 -16 1 -26.5t1 -20v-20.5v-28q-4 -61 -64 -61q-49 -2 -82 -2t-82 2q-59 0 -63 64q-2 31 -2 47z M346 1395q0 20 9.5 48t25.5 55q23 41 62 65.5t79 24.5q29 0 60 -8.5t92 -32.5q23 -10 40 -16.5t30 -12.5q43 -12 63 -10q35 0 58 20l43 41q18 14 32 15q45 0 56 -52h-2q0 -41 -19.5 -80.5t-48.5 -70.5q-25 -27 -55.5 -42t-59.5 -15q-27 0 -66.5 11t-99.5 38q-20 10 -35.5 16 t-25.5 10q-25 10 -45 6q-27 0 -51 -12q-10 -4 -24.5 -16.5t-22.5 -20.5l-11 -10q-16 -14 -30 -14q-20 0 -36 17.5t-18 45.5z" />
<glyph unicode="&#xf2;" horiz-adv-x="1206" d="M193 592q0 166 34.5 280.5t92 187.5t130 104.5t148.5 31.5q84 0 160 -33t132 -103.5t90 -183t34 -274.5v-2q0 -162 -33 -278.5t-89 -190.5t-131 -108.5t-157 -34.5q-80 0 -154.5 35.5t-131 109.5t-91 187.5t-34.5 271.5zM372 1480q-2 47 25.5 81t64.5 34q16 0 29.5 -7 t40.5 -26l158 -110q39 -29 51 -42.5t14 -35.5l-2 -2q0 -41 -28 -59q-12 -12 -31 -13q-16 0 -58 17l-186 71q-41 16 -59.5 38t-18.5 54zM401 594q0 -121 17.5 -200t45.5 -127t63.5 -66.5t74.5 -18.5q43 0 79 22.5t63.5 72t43 128t15.5 193.5q0 209 -55.5 306t-145.5 95 q-41 0 -77 -20.5t-63.5 -67.5t-44 -124.5t-16.5 -192.5z" />
<glyph unicode="&#xf3;" horiz-adv-x="1206" d="M193 592q0 166 34.5 280.5t92 187.5t130 104.5t148.5 31.5q84 0 160 -33t132 -103.5t90 -183t34 -274.5v-2q0 -162 -33 -278.5t-89 -190.5t-131 -108.5t-157 -34.5q-80 0 -154.5 35.5t-131 109.5t-91 187.5t-34.5 271.5zM393 1366q0 25 12 38t51 42l156 108 q27 18 40 26.5t27 10.5q39 0 66 -34t29 -81h-2q0 -33 -18.5 -53t-59.5 -37l-184 -73q-41 -16 -58 -17q-35 0 -55 41q-6 16 -4 29zM401 594q0 -121 17.5 -200t45.5 -127t63.5 -66.5t74.5 -18.5q43 0 79 22.5t63.5 72t43 128t15.5 193.5q0 209 -55.5 306t-145.5 95 q-41 0 -77 -20.5t-63.5 -67.5t-44 -124.5t-16.5 -192.5z" />
<glyph unicode="&#xf4;" horiz-adv-x="1206" d="M193 592q0 166 34.5 280.5t92 187.5t130 104.5t148.5 31.5q84 0 160 -33t132 -103.5t90 -183t34 -274.5v-2q0 -162 -33 -278.5t-89 -190.5t-131 -108.5t-157 -34.5q-80 0 -154.5 35.5t-131 109.5t-91 187.5t-34.5 271.5zM297 1356q0 23 12.5 39t38.5 34l185 131 q18 12 34.5 17.5t28.5 7.5q16 0 31.5 -6t38.5 -23l178 -131q27 -18 38 -31.5t11 -33.5q0 -29 -16.5 -47.5t-42.5 -14.5q-10 0 -24.5 1t-27.5 5l-186 78l-184 -76q-16 -6 -28.5 -9t-20.5 -5q-29 0 -47.5 18.5t-18.5 45.5zM401 594q0 -121 17.5 -200t45.5 -127t63.5 -66.5 t74.5 -18.5q43 0 79 22.5t63.5 72t43 128t15.5 193.5q0 209 -55.5 306t-145.5 95q-41 0 -77 -20.5t-63.5 -67.5t-44 -124.5t-16.5 -192.5z" />
<glyph unicode="&#xf5;" horiz-adv-x="1206" d="M193 592q0 166 34.5 280.5t92 187.5t130 104.5t148.5 31.5q84 0 160 -33t132 -103.5t90 -183t34 -274.5v-2q0 -162 -33 -278.5t-89 -190.5t-131 -108.5t-157 -34.5q-80 0 -154.5 35.5t-131 109.5t-91 187.5t-34.5 271.5zM276 1370q0 20 9.5 48t25.5 55q23 41 62 65.5 t79 24.5q29 0 60 -8.5t92 -32.5q23 -10 40 -16.5t30 -12.5q43 -12 63 -10q35 0 58 20l43 41q18 14 32 15q45 0 56 -52h-2q0 -41 -19.5 -80.5t-48.5 -70.5q-25 -27 -55.5 -42t-59.5 -15q-27 0 -66.5 11t-99.5 38q-20 10 -35.5 16t-25.5 10q-25 10 -45 6q-27 0 -51 -12 q-10 -4 -24.5 -16.5t-22.5 -20.5l-11 -10q-16 -14 -30 -14q-20 0 -36 17.5t-18 45.5zM401 594q0 -121 17.5 -200t45.5 -127t63.5 -66.5t74.5 -18.5q43 0 79 22.5t63.5 72t43 128t15.5 193.5q0 209 -55.5 306t-145.5 95q-41 0 -77 -20.5t-63.5 -67.5t-44 -124.5t-16.5 -192.5 z" />
<glyph unicode="&#xf6;" horiz-adv-x="1206" d="M193 592q0 166 34.5 280.5t92 187.5t130 104.5t148.5 31.5q84 0 160 -33t132 -103.5t90 -183t34 -274.5v-2q0 -162 -33 -278.5t-89 -190.5t-131 -108.5t-157 -34.5q-80 0 -154.5 35.5t-131 109.5t-91 187.5t-34.5 271.5zM266 1435q0 55 39 94t96 37q55 0 94.5 -38.5 t39.5 -94.5v-2q0 -55 -39 -94t-97 -37q-55 0 -94 39t-39 96zM401 594q0 -121 17.5 -200t45.5 -127t63.5 -66.5t74.5 -18.5q43 0 79 22.5t63.5 72t43 128t15.5 193.5q0 209 -55.5 306t-145.5 95q-41 0 -77 -20.5t-63.5 -67.5t-44 -124.5t-16.5 -192.5zM649 1437q0 55 39 94 t96 37q55 0 94.5 -38.5t39.5 -94.5v-2q0 -55 -39 -94t-97 -37q-55 0 -94 39t-39 96z" />
<glyph unicode="&#xf7;" d="M16 770l988 2l2 -147h-988zM393 313q-2 49 33 85t82 36q51 2 86 -33.5t35 -85.5l2 2q0 -51 -35 -85.5t-82 -34.5q-49 -2 -85 32.5t-36 83.5zM393 1079q-2 49 33 85t82 36q51 2 86 -34t35 -85t-34 -84.5t-81 -33.5q-49 -2 -85 32.5t-36 83.5z" />
<glyph unicode="&#xf9;" horiz-adv-x="1347" d="M229 1072q0 9 1 20.5t1 27.5q4 61 64 62q49 2 82 2t82 -2q61 0 61 -64q2 -31 2 -48v-46q-4 -45 -43 -57l-2 -531q0 -139 41 -195.5t127 -56.5q39 0 75 17.5t64.5 50.5t46 81t17.5 111v525q-39 12 -39 57q0 16 -1 26.5t-1 19.5t1 20.5t1 27.5q4 61 61 62q49 2 82 2t82 -2 q59 0 64 -64q2 -31 2 -47t-2 -45q-4 -51 -43 -59l-2 -752q41 -12 45 -59q2 -31 2 -48.5t-2 -46.5h2q-4 -59 -66 -63h-61h-23.5t-42.5 2q-59 0 -63 63v21.5t2 21.5q-37 -43 -103.5 -79.5t-144.5 -36.5q-66 0 -124 18.5t-102 66.5t-71 131t-27 210l2 549q-41 12 -45 61 q0 16 -1 26.5t-1 19.5zM438 1468q-2 47 25.5 81t64.5 34q16 0 29.5 -7t40.5 -26l158 -110q39 -29 51 -42.5t14 -35.5l-2 -2q0 -41 -28 -59q-12 -12 -31 -13q-16 0 -58 17l-186 71q-41 16 -59.5 38t-18.5 54z" />
<glyph unicode="&#xfa;" horiz-adv-x="1347" d="M229 1072q0 9 1 20.5t1 27.5q4 61 64 62q49 2 82 2t82 -2q61 0 61 -64q2 -31 2 -48v-46q-4 -45 -43 -57l-2 -531q0 -139 41 -195.5t127 -56.5q39 0 75 17.5t64.5 50.5t46 81t17.5 111v525q-39 12 -39 57q0 16 -1 26.5t-1 19.5t1 20.5t1 27.5q4 61 61 62q49 2 82 2t82 -2 q59 0 64 -64q2 -31 2 -47t-2 -45q-4 -51 -43 -59l-2 -752q41 -12 45 -59q2 -31 2 -48.5t-2 -46.5h2q-4 -59 -66 -63h-61h-23.5t-42.5 2q-59 0 -63 63v21.5t2 21.5q-37 -43 -103.5 -79.5t-144.5 -36.5q-66 0 -124 18.5t-102 66.5t-71 131t-27 210l2 549q-41 12 -45 61 q0 16 -1 26.5t-1 19.5zM475 1366q0 25 12 38t51 42l156 108q27 18 40 26.5t27 10.5q39 0 66 -34t29 -81h-2q0 -33 -18.5 -53t-59.5 -37l-184 -73q-41 -16 -58 -17q-35 0 -55 41q-6 16 -4 29z" />
<glyph unicode="&#xfb;" horiz-adv-x="1347" d="M229 1072q0 9 1 20.5t1 27.5q4 61 64 62q49 2 82 2t82 -2q61 0 61 -64q2 -31 2 -48v-46q-4 -45 -43 -57l-2 -531q0 -139 41 -195.5t127 -56.5q39 0 75 17.5t64.5 50.5t46 81t17.5 111v525q-39 12 -39 57q0 16 -1 26.5t-1 19.5t1 20.5t1 27.5q4 61 61 62q49 2 82 2t82 -2 q59 0 64 -64q2 -31 2 -47t-2 -45q-4 -51 -43 -59l-2 -752q41 -12 45 -59q2 -31 2 -48.5t-2 -46.5h2q-4 -59 -66 -63h-61h-23.5t-42.5 2q-59 0 -63 63v21.5t2 21.5q-37 -43 -103.5 -79.5t-144.5 -36.5q-66 0 -124 18.5t-102 66.5t-71 131t-27 210l2 549q-41 12 -45 61 q0 16 -1 26.5t-1 19.5zM373 1373q0 23 12.5 39t38.5 34l185 131q18 12 34.5 17.5t28.5 7.5q16 0 31.5 -6t38.5 -23l178 -131q27 -18 38 -31.5t11 -33.5q0 -29 -16.5 -47.5t-42.5 -14.5q-10 0 -24.5 1t-27.5 5l-186 78l-184 -76q-16 -6 -28.5 -9t-20.5 -5q-29 0 -47.5 18.5 t-18.5 45.5z" />
<glyph unicode="&#xfc;" horiz-adv-x="1347" d="M229 1072q0 9 1 20.5t1 27.5q4 61 64 62q49 2 82 2t82 -2q61 0 61 -64q2 -31 2 -48v-46q-4 -45 -43 -57l-2 -531q0 -139 41 -195.5t127 -56.5q39 0 75 17.5t64.5 50.5t46 81t17.5 111v525q-39 12 -39 57q0 16 -1 26.5t-1 19.5t1 20.5t1 27.5q4 61 61 62q49 2 82 2t82 -2 q59 0 64 -64q2 -31 2 -47t-2 -45q-4 -51 -43 -59l-2 -752q41 -12 45 -59q2 -31 2 -48.5t-2 -46.5h2q-4 -59 -66 -63h-61h-23.5t-42.5 2q-59 0 -63 63v21.5t2 21.5q-37 -43 -103.5 -79.5t-144.5 -36.5q-66 0 -124 18.5t-102 66.5t-71 131t-27 210l2 549q-41 12 -45 61 q0 16 -1 26.5t-1 19.5zM334 1444q0 55 39 94t96 37q55 0 94.5 -38.5t39.5 -94.5v-2q0 -55 -39 -94t-97 -37q-55 0 -94 39t-39 96zM717 1446q0 55 39 94t96 37q55 0 94.5 -38.5t39.5 -94.5v-2q0 -55 -39 -94t-97 -37q-55 0 -94 39t-39 96z" />
<glyph unicode="&#xfd;" horiz-adv-x="485" />
<glyph unicode="&#xff;" horiz-adv-x="1263" d="M135 -260.5q0 16.5 2 45.5q0 27 16.5 42t45.5 17h41h13t23 -2q59 -4 62 -59q53 8 76.5 49t40.5 90l110 305l-311 744q-41 12 -41 57q-2 31 -2 47.5t2 44.5q2 29 17.5 45.5t43.5 16.5q27 0 44.5 1t34 1t36 -1t47.5 -1q27 0 42.5 -16.5t15.5 -43.5q0 -16 1 -26.5t1 -19.5 t-1 -20.5t-1 -27.5q0 -35 -25 -49l197 -526l174 524q-29 14 -31 55q-2 31 -2 47.5v42.5q2 29 18.5 45.5t44.5 16.5q27 0 44.5 1t34 1t36 -1t47.5 -1q27 0 42.5 -16.5t17.5 -45.5l-2 2q2 -33 2 -46t-2 -44q0 -43 -35 -59l-410 -1114q-33 -90 -68.5 -145.5t-74.5 -86t-82 -40 t-92 -9.5h-26.5t-36 -1t-37 -1h-29.5q-59 4 -64 64v69v28.5zM319 1448q0 55 39 94t96 37q55 0 94.5 -38.5t39.5 -94.5v-2q0 -55 -39 -94t-97 -37q-55 0 -94 39t-39 96zM702 1450q0 55 39 94t96 37q55 0 94.5 -38.5t39.5 -94.5v-2q0 -55 -39 -94t-97 -37q-55 0 -94 39t-39 96 z" />
<glyph unicode="&#x152;" horiz-adv-x="2129" d="M211 791v4q-2 209 44 368.5t121 268t169 164t190 55.5q33 0 71 -6.5t78 -21.5t78.5 -39.5t69.5 -63.5v55q4 59 64 63h45l28 -2l402 2h207h22h6l6 -2h25q61 -4 61 -63v2q0 -25 1.5 -36t1.5 -20.5t-1.5 -21.5t-3.5 -37q0 -59 -61 -63q-31 -2 -47 -2t-45 2q-51 4 -62 51 h-442v-492h244q10 47 61 48q33 2 46.5 2t45.5 -2q61 -4 62 -64q2 -47 2 -80t-2 -80q0 -59 -62 -63q-31 -2 -47 -2t-45 2q-49 4 -61 47h-246v-571h440q10 47 62 47q33 2 46 2t46 -2q61 -4 61 -62q0 -25 1 -36t1 -20t-1 -20.5t-1 -35.5q0 -59 -61 -64q-29 -2 -45.5 -2h-40.5 h-647q-29 0 -45.5 16.5t-18.5 44.5q-2 27 -1 42.5t3 37.5q-61 -74 -134 -113.5t-165 -39.5t-185 48t-169 146.5t-123 250t-49 358.5zM418 805q0 -135 24.5 -249t68.5 -195.5t104.5 -129t132.5 -47.5q88 0 137 45t84 115t56.5 196t21.5 285l-3 2q0 168 -17 306.5t-77 218.5 q-43 59 -89 83.5t-118 22.5q-66 0 -124 -51t-103 -140t-71.5 -208t-26.5 -254z" />
<glyph unicode="&#x153;" horiz-adv-x="1814" d="M193 588q0 170 34.5 287.5t92 191.5t130 105.5t148.5 29.5q84 0 165 -38t144 -134q45 80 118 128t175 48q111 0 185.5 -42t121.5 -103.5t71 -133t34 -128.5q2 -12 5 -43t5 -67t-2 -69.5t-18 -52.5h2q-12 -18 -31 -23t-41 -5h-33l-491 2q0 -78 11 -144.5t37.5 -116 t67.5 -78t103 -28.5q14 0 26.5 1t24.5 3q10 2 36.5 9.5t35.5 11.5l-2 77q0 25 16 40.5t45 15.5q16 0 27.5 1t20.5 1h19.5h26.5q59 0 64 -60q0 -25 1 -40t1 -28t-1 -28.5t-1 -40.5q0 -14 -4 -26q-2 -2 -9.5 -10.5t-15.5 -12.5q-41 -35 -91 -59.5t-85 -34.5q-27 -4 -60.5 -8 t-76.5 -2q-115 4 -195 52t-127 126q-53 -90 -129 -134t-172 -44q-80 0 -153.5 37.5t-130 112.5t-91 187.5t-34.5 266.5zM395 602q0 -123 18.5 -205t49.5 -131t69.5 -69.5t77.5 -20.5q51 0 89 20.5t65 69.5t39 131t12 207q0 115 -12 194t-39 128t-66 70.5t-92 21.5 q-41 0 -80 -21.5t-67.5 -69.5t-46 -128t-17.5 -197zM1008 735h403q0 47 -11 97.5t-36 91.5t-64.5 66.5t-99.5 25.5v2q-63 0 -101 -27.5t-58.5 -69.5t-26.5 -91.5t-6 -94.5z" />
<glyph unicode="&#x178;" horiz-adv-x="1361" d="M191.5 1531q-1.5 17 1.5 46q2 29 18 45t47 16q27 0 44 1t33.5 1t35 -1t47.5 -3q29 0 45 -16t18 -45q2 -33 2 -46t-2 -46q0 -41 -30 -56l233 -575l225 575q-29 16 -28 56q-2 31 -2 48t2 46t18 45t47 16q27 0 44.5 1t33.5 1t34.5 -1t47.5 -3q29 0 45 -16t18 -45h-2 q2 -33 1 -46t-1 -46q2 -14 -4 -27q-4 -10 -14 -20.5t-27 -14.5l-340 -817v-387q18 -4 30.5 -20.5t12.5 -38.5q2 -33 2 -46.5v-45.5q-4 -63 -65 -64q-47 -2 -80 -2h-80q-63 4 -63 66q-2 31 -2 47v45q2 23 12 39t31 20v383l-344 821q-16 4 -24.5 14.5t-12.5 20.5q-6 12 -6 27 q0 31 -1.5 48zM350 1890q0 55 39 94t96 37q55 0 94.5 -38.5t39.5 -94.5v-2q0 -55 -39 -94t-97 -37q-55 0 -94 39t-39 96zM733 1892q0 55 39 94t96 37q55 0 94.5 -38.5t39.5 -94.5v-2q0 -55 -39 -94t-97 -37q-55 0 -94 39t-39 96z" />
<glyph unicode="&#x2c6;" d="M213 1221q0 23 12.5 39t38.5 34l185 131q18 12 34.5 17.5t28.5 7.5q16 0 31.5 -6t38.5 -23l178 -131q27 -18 38 -31.5t11 -33.5q0 -29 -16.5 -47.5t-42.5 -14.5q-10 0 -24.5 1t-27.5 5l-186 78l-184 -76q-16 -6 -28.5 -9t-20.5 -5q-29 0 -47.5 18.5t-18.5 45.5z" />
<glyph unicode="&#x2dc;" d="M186 1245q0 20 9.5 48t25.5 55q23 41 62 65.5t79 24.5q29 0 60 -8.5t92 -32.5q23 -10 40 -16.5t30 -12.5q43 -12 63 -10q35 0 58 20l43 41q18 14 32 15q45 0 56 -52h-2q0 -41 -19.5 -80.5t-48.5 -70.5q-25 -27 -55.5 -42t-59.5 -15q-27 0 -66.5 11t-99.5 38 q-20 10 -35.5 16t-25.5 10q-25 10 -45 6q-27 0 -51 -12q-10 -4 -24.5 -16.5t-22.5 -20.5l-11 -10q-16 -14 -30 -14q-20 0 -36 17.5t-18 45.5z" />
<glyph unicode="&#x2000;" horiz-adv-x="1076" />
<glyph unicode="&#x2001;" horiz-adv-x="2152" />
<glyph unicode="&#x2002;" horiz-adv-x="1076" />
<glyph unicode="&#x2003;" horiz-adv-x="2152" />
<glyph unicode="&#x2004;" horiz-adv-x="717" />
<glyph unicode="&#x2005;" horiz-adv-x="538" />
<glyph unicode="&#x2006;" horiz-adv-x="358" />
<glyph unicode="&#x2007;" horiz-adv-x="358" />
<glyph unicode="&#x2008;" horiz-adv-x="269" />
<glyph unicode="&#x2009;" horiz-adv-x="430" />
<glyph unicode="&#x200a;" horiz-adv-x="119" />
<glyph unicode="&#x2010;" horiz-adv-x="849" d="M193 561q0 61 29.5 86t107.5 25h190q76 0 106.5 -25t30.5 -84t-30.5 -81.5t-120.5 -22.5h-168q-86 0 -115.5 21.5t-29.5 80.5z" />
<glyph unicode="&#x2011;" horiz-adv-x="849" d="M193 561q0 61 29.5 86t107.5 25h190q76 0 106.5 -25t30.5 -84t-30.5 -81.5t-120.5 -22.5h-168q-86 0 -115.5 21.5t-29.5 80.5z" />
<glyph unicode="&#x2012;" horiz-adv-x="849" d="M193 561q0 61 29.5 86t107.5 25h190q76 0 106.5 -25t30.5 -84t-30.5 -81.5t-120.5 -22.5h-168q-86 0 -115.5 21.5t-29.5 80.5z" />
<glyph unicode="&#x2013;" horiz-adv-x="1185" d="M82 563q0 61 29.5 86t107.5 25h55h138h178h179t139.5 -1t60.5 -1q74 0 104.5 -24t30.5 -83t-31 -81.5t-119 -24.5h-60h-133h-170h-170t-133.5 1t-60.5 1q-86 0 -115.5 21.5t-29.5 80.5z" />
<glyph unicode="&#x2014;" horiz-adv-x="1421" d="M82 563q0 61 29.5 86t107.5 25h73h180.5h234.5h235.5t183 -1t78.5 -1q74 0 104.5 -24t30.5 -83t-30.5 -81.5t-120.5 -24.5h-78h-177.5h-226h-225t-176.5 1t-78 1q-86 0 -115.5 21.5t-29.5 80.5z" />
<glyph unicode="&#x2018;" horiz-adv-x="595" d="M151 1310.5q-1 30.5 3 61.5q2 20 13 61.5t40 104.5q29 59 55.5 100t50.5 68q31 29 70 29q16 0 37.5 -13.5t21.5 -38.5v3q0 -18 -3 -31t-9 -28t-14 -38.5t-17 -64.5q-8 -35 -9 -59.5t-3 -34.5q47 -6 51 -58q2 -29 2 -62.5t-2 -62.5q-4 -57 -61 -57q-25 0 -44.5 -1 t-36.5 -1t-36.5 1t-46.5 3q-55 0 -59 57q-2 31 -3 61.5z" />
<glyph unicode="&#x2019;" horiz-adv-x="595" d="M154 1141q0 18 3 30.5t9 27.5t14 39t17 65q8 35 9 59t3 35q-47 6 -51 57q-2 29 -2 62.5t2 62.5q4 57 61 57q25 0 44.5 1t36.5 1t36.5 -1t46.5 -3q55 0 59 -57h-2q2 -31 3 -61.5t-3 -61.5q-2 -20 -12 -61t-39 -105q-29 -59 -55.5 -100t-52.5 -68q-31 -29 -68 -28 q-16 0 -37.5 13t-21.5 36z" />
<glyph unicode="&#x201a;" horiz-adv-x="647" d="M172 -262q0 18 3 30.5t9 29t14.5 41t18.5 67.5q8 37 9 62.5t3 35.5q-49 6 -53 62q-2 31 -2 66.5v64.5q2 29 18.5 45t47.5 16q27 0 47 1t38.5 1t38 -1t48.5 -1q59 0 63 -63v2q2 -33 2 -65t-4 -62q-2 -23 -13 -67t-40 -112q-57 -123 -117 -176q-31 -31 -67 -30 q-18 0 -41 14t-23 39z" />
<glyph unicode="&#x201c;" horiz-adv-x="1052" d="M169 1312.5q-1 30.5 3 61.5q2 20 13.5 61.5t39.5 104.5q29 59 55.5 100t51.5 68q31 29 69 29q16 0 38 -13.5t22 -37.5v2q0 -18 -3 -30.5t-9.5 -28t-14.5 -39t-16 -64.5q-8 -35 -9 -59.5t-3 -34.5q47 -6 51 -58q2 -29 2 -62.5t-2 -62.5q-4 -57 -62 -57q-25 0 -44 -1 t-36.5 -1t-37 1t-46.5 3q-55 0 -59 57q-2 31 -3 61.5zM591 1310.5q-1 30.5 3 61.5q2 20 12 61.5t39 104.5q29 59 55.5 100t53.5 68q31 29 67 29q16 0 38 -13.5t22 -38.5v3q0 -18 -3.5 -31t-9.5 -28t-14 -38.5t-16 -64.5q-8 -35 -9.5 -59.5t-3.5 -34.5q47 -6 52 -58 q2 -29 2 -62.5t-2 -62.5q-4 -57 -62 -57q-25 0 -44 -1t-36.5 -1t-37 1t-46.5 3q-57 0 -57 57q-2 31 -3 61.5z" />
<glyph unicode="&#x201d;" horiz-adv-x="1052" d="M172 1141q0 18 3 30.5t9 27.5t14.5 39t16.5 65q8 35 9 59t3 35q-47 6 -51 57q-2 29 -2 62.5t2 62.5q4 57 62 57q25 0 44 1t36.5 1t37 -1t45.5 -3q55 0 60 -57h-2q2 -31 3 -61.5t-3 -61.5q-2 -20 -12.5 -61t-38.5 -105q-29 -59 -55.5 -100t-53.5 -68q-31 -29 -68 -28 q-16 0 -37.5 13t-21.5 36zM592 1141q0 18 3 30.5t9 27.5t14.5 39t16.5 65q8 35 9 59t3 35q-47 6 -51 57q-2 29 -2 62.5t2 62.5q4 57 61 57q25 0 44.5 1t37 1t37 -1t45.5 -3q56 0 60 -57q2 -31 3 -61.5t-3 -61.5q-2 -20 -13.5 -61t-40.5 -105q-29 -59 -55.5 -100t-50.5 -68 q-31 -29 -70 -28q-16 0 -37.5 13t-21.5 36z" />
<glyph unicode="&#x201e;" horiz-adv-x="1052" d="M172 -244q0 18 3 30.5t9 28t14.5 39t16.5 64.5q8 35 9 59.5t3 34.5q-47 6 -51 58q-2 29 -2 62.5t2 62.5q4 57 62 57q25 0 44 1t36.5 1t37 -1t45.5 -3q55 0 60 -57h-2q2 -31 3 -62t-3 -61q-2 -20 -12.5 -61.5t-38.5 -104.5q-29 -59 -55.5 -100.5t-53.5 -67.5 q-31 -29 -68 -29q-16 0 -37.5 13.5t-21.5 35.5zM592 -244q0 18 3 30.5t9 28t14.5 39t16.5 64.5q8 35 9 59.5t3 34.5q-47 6 -51 58q-2 29 -2 62.5t2 62.5q4 57 61 57q25 0 44.5 1t37 1t37 -1t45.5 -3q56 0 60 -57q2 -31 3 -62t-3 -61q-2 -20 -13.5 -61.5t-40.5 -104.5 q-29 -59 -55.5 -100.5t-50.5 -67.5q-31 -29 -70 -29q-16 0 -37.5 13.5t-21.5 35.5z" />
<glyph unicode="&#x2022;" horiz-adv-x="849" d="M211 621q0 45 16.5 84.5t45 69.5t66.5 47.5t81 17.5q45 0 85 -16.5t69.5 -46t47 -68.5t17.5 -82h-2q0 -45 -16.5 -84t-45 -69t-67.5 -46t-82 -16q-45 0 -84 16t-68.5 45t-46 67t-16.5 81z" />
<glyph unicode="&#x202f;" horiz-adv-x="430" />
<glyph unicode="&#x2039;" horiz-adv-x="675" d="M164 569q0 10 5 22.5t13 22.5l195 267q10 12 16 17t13 9q16 12 36 15q29 0 48.5 -13.5t21.5 -34.5h-2q0 -18 -6 -32l-142 -275l113 -264q4 -10 6 -17l4 -14q0 -23 -19.5 -37t-47.5 -14q-37 0 -64 41l-172 262q-8 10 -13 23.5t-5 21.5z" />
<glyph unicode="&#x203a;" horiz-adv-x="675" d="M164 266q0 10 2 17.5t6 17.5l141 274l-110 265q-8 16 -13 28q0 23 19.5 37.5t48.5 16.5q37 0 64 -41l170 -267q16 -23 20 -43l-2 2q0 -10 -5 -22t-13 -23l-193 -264q-10 -12 -16.5 -18t-12.5 -10q-16 -14 -39 -17q-29 0 -48 13.5t-19 33.5z" />
<glyph unicode="&#x205f;" horiz-adv-x="538" />
<glyph unicode="&#x2122;" horiz-adv-x="1757" d="M20 1247v117h670v-117h-264l2 -700h-143v700h-265zM788 545v819h207l232 -571l239 571h203v-817h-127v690l-274 -692h-80l-268 690v-688z" />
<glyph unicode="&#x25fc;" horiz-adv-x="1187" d="M0 0v1188h1188v-1188h-1188z" />
</font>
</defs>
</svg>
